solid ascii
  facet normal 9.345677e-001 3.551839e-001 2.068032e-002
    outer loop
      vertex   5.328606e+002 -1.181153e+002 2.057405e+002
      vertex   5.328722e+002 -1.181151e+002 2.052131e+002
      vertex   5.318797e+002 -1.155330e+002 2.057198e+002
    endloop
  endfacet
  facet normal 9.345677e-001 3.551839e-001 2.068032e-002
    outer loop
      vertex   5.318797e+002 -1.155330e+002 2.057198e+002
      vertex   5.328722e+002 -1.181151e+002 2.052131e+002
      vertex   5.318913e+002 -1.155329e+002 2.051923e+002
    endloop
  endfacet
  facet normal -2.199905e-002 -3.257750e-004 9.997579e-001
    outer loop
      vertex   5.318797e+002 -1.155330e+002 2.057198e+002
      vertex   4.671614e+002 -1.401293e+002 2.042877e+002
      vertex   5.000111e+002 -1.291223e+002 2.050141e+002
    endloop
  endfacet
  facet normal -2.199905e-002 -3.257750e-004 9.997579e-001
    outer loop
      vertex   5.328606e+002 -1.181153e+002 2.057405e+002
      vertex   5.000111e+002 -1.291223e+002 2.050141e+002
      vertex   4.681426e+002 -1.427114e+002 2.043084e+002
    endloop
  endfacet
  facet normal -2.199905e-002 -3.257750e-004 9.997579e-001
    outer loop
      vertex   5.328606e+002 -1.181153e+002 2.057405e+002
      vertex   5.318797e+002 -1.155330e+002 2.057198e+002
      vertex   5.000111e+002 -1.291223e+002 2.050141e+002
    endloop
  endfacet
  facet normal -2.199905e-002 -3.257750e-004 9.997579e-001
    outer loop
      vertex   4.671614e+002 -1.401293e+002 2.042877e+002
      vertex   4.681426e+002 -1.427114e+002 2.043084e+002
      vertex   5.000111e+002 -1.291223e+002 2.050141e+002
    endloop
  endfacet
  facet normal 3.551047e-001 -9.347964e-001 7.509251e-003
    outer loop
      vertex   4.681542e+002 -1.427113e+002 2.037810e+002
      vertex   4.746201e+002 -1.402518e+002 2.041879e+002
      vertex   4.681426e+002 -1.427114e+002 2.043084e+002
    endloop
  endfacet
  facet normal 3.551047e-001 -9.347964e-001 7.509222e-003
    outer loop
      vertex   4.681542e+002 -1.427113e+002 2.037810e+002
      vertex   4.810919e+002 -1.377922e+002 2.043311e+002
      vertex   4.746201e+002 -1.402518e+002 2.041879e+002
    endloop
  endfacet
  facet normal 3.551047e-001 -9.347964e-001 7.509222e-003
    outer loop
      vertex   4.681542e+002 -1.427113e+002 2.037810e+002
      vertex   4.875637e+002 -1.353325e+002 2.044743e+002
      vertex   4.810919e+002 -1.377922e+002 2.043311e+002
    endloop
  endfacet
  facet normal 3.551047e-001 -9.347964e-001 7.509222e-003
    outer loop
      vertex   4.681542e+002 -1.427113e+002 2.037810e+002
      vertex   4.940355e+002 -1.328729e+002 2.046176e+002
      vertex   4.875637e+002 -1.353325e+002 2.044743e+002
    endloop
  endfacet
  facet normal 3.551047e-001 -9.347964e-001 7.509222e-003
    outer loop
      vertex   4.681542e+002 -1.427113e+002 2.037810e+002
      vertex   5.005073e+002 -1.304133e+002 2.047608e+002
      vertex   4.940355e+002 -1.328729e+002 2.046176e+002
    endloop
  endfacet
  facet normal 3.551047e-001 -9.347964e-001 7.509237e-003
    outer loop
      vertex   4.681542e+002 -1.427113e+002 2.037810e+002
      vertex   5.328722e+002 -1.181151e+002 2.052131e+002
      vertex   5.005073e+002 -1.304133e+002 2.047608e+002
    endloop
  endfacet
  facet normal 3.551047e-001 -9.347964e-001 7.509252e-003
    outer loop
      vertex   5.005073e+002 -1.304133e+002 2.047608e+002
      vertex   5.328722e+002 -1.181151e+002 2.052131e+002
      vertex   5.069792e+002 -1.279537e+002 2.049040e+002
    endloop
  endfacet
  facet normal 3.551047e-001 -9.347964e-001 7.509252e-003
    outer loop
      vertex   5.328606e+002 -1.181153e+002 2.057405e+002
      vertex   5.069792e+002 -1.279537e+002 2.049040e+002
      vertex   5.134510e+002 -1.254940e+002 2.050472e+002
    endloop
  endfacet
  facet normal 3.551047e-001 -9.347964e-001 7.509252e-003
    outer loop
      vertex   5.199228e+002 -1.230344e+002 2.051904e+002
      vertex   5.134510e+002 -1.254940e+002 2.050472e+002
      vertex   5.328722e+002 -1.181151e+002 2.052131e+002
    endloop
  endfacet
  facet normal 3.551047e-001 -9.347964e-001 7.509252e-003
    outer loop
      vertex   5.263946e+002 -1.205748e+002 2.053336e+002
      vertex   5.328722e+002 -1.181151e+002 2.052131e+002
      vertex   5.328606e+002 -1.181153e+002 2.057405e+002
    endloop
  endfacet
  facet normal 3.551047e-001 -9.347964e-001 7.509252e-003
    outer loop
      vertex   5.199228e+002 -1.230344e+002 2.051904e+002
      vertex   5.328606e+002 -1.181153e+002 2.057405e+002
      vertex   5.134510e+002 -1.254940e+002 2.050472e+002
    endloop
  endfacet
  facet normal 3.551047e-001 -9.347964e-001 7.509252e-003
    outer loop
      vertex   5.199228e+002 -1.230344e+002 2.051904e+002
      vertex   5.263946e+002 -1.205748e+002 2.053336e+002
      vertex   5.328606e+002 -1.181153e+002 2.057405e+002
    endloop
  endfacet
  facet normal 3.551047e-001 -9.347964e-001 7.509252e-003
    outer loop
      vertex   5.199228e+002 -1.230344e+002 2.051904e+002
      vertex   5.328722e+002 -1.181151e+002 2.052131e+002
      vertex   5.263946e+002 -1.205748e+002 2.053336e+002
    endloop
  endfacet
  facet normal 3.551047e-001 -9.347964e-001 7.509252e-003
    outer loop
      vertex   5.069792e+002 -1.279537e+002 2.049040e+002
      vertex   5.328606e+002 -1.181153e+002 2.057405e+002
      vertex   5.005073e+002 -1.304133e+002 2.047608e+002
    endloop
  endfacet
  facet normal 3.551047e-001 -9.347964e-001 7.509266e-003
    outer loop
      vertex   5.005073e+002 -1.304133e+002 2.047608e+002
      vertex   5.328606e+002 -1.181153e+002 2.057405e+002
      vertex   4.681426e+002 -1.427114e+002 2.043084e+002
    endloop
  endfacet
  facet normal 3.551047e-001 -9.347964e-001 7.509281e-003
    outer loop
      vertex   4.940355e+002 -1.328729e+002 2.046176e+002
      vertex   4.681426e+002 -1.427114e+002 2.043084e+002
      vertex   4.875637e+002 -1.353325e+002 2.044743e+002
    endloop
  endfacet
  facet normal 3.551047e-001 -9.347964e-001 7.509281e-003
    outer loop
      vertex   4.940355e+002 -1.328729e+002 2.046176e+002
      vertex   5.005073e+002 -1.304133e+002 2.047608e+002
      vertex   4.681426e+002 -1.427114e+002 2.043084e+002
    endloop
  endfacet
  facet normal 3.551047e-001 -9.347964e-001 7.509281e-003
    outer loop
      vertex   4.875637e+002 -1.353325e+002 2.044743e+002
      vertex   4.681426e+002 -1.427114e+002 2.043084e+002
      vertex   4.810919e+002 -1.377922e+002 2.043311e+002
    endloop
  endfacet
  facet normal 3.551047e-001 -9.347964e-001 7.509281e-003
    outer loop
      vertex   4.810919e+002 -1.377922e+002 2.043311e+002
      vertex   4.681426e+002 -1.427114e+002 2.043084e+002
      vertex   4.746201e+002 -1.402518e+002 2.041879e+002
    endloop
  endfacet
  facet normal 3.551047e-001 -9.347964e-001 7.509252e-003
    outer loop
      vertex   5.134510e+002 -1.254940e+002 2.050472e+002
      vertex   5.069792e+002 -1.279537e+002 2.049040e+002
      vertex   5.328722e+002 -1.181151e+002 2.052131e+002
    endloop
  endfacet
  facet normal 2.199905e-002 3.257750e-004 -9.997579e-001
    outer loop
      vertex   5.328722e+002 -1.181151e+002 2.052131e+002
      vertex   4.681542e+002 -1.427113e+002 2.037810e+002
      vertex   5.000227e+002 -1.291221e+002 2.044867e+002
    endloop
  endfacet
  facet normal 2.199905e-002 3.257750e-004 -9.997579e-001
    outer loop
      vertex   5.318913e+002 -1.155329e+002 2.051923e+002
      vertex   5.000227e+002 -1.291221e+002 2.044867e+002
      vertex   4.671730e+002 -1.401291e+002 2.037602e+002
    endloop
  endfacet
  facet normal 2.199905e-002 3.257750e-004 -9.997579e-001
    outer loop
      vertex   5.318913e+002 -1.155329e+002 2.051923e+002
      vertex   5.328722e+002 -1.181151e+002 2.052131e+002
      vertex   5.000227e+002 -1.291221e+002 2.044867e+002
    endloop
  endfacet
  facet normal 2.199905e-002 3.257750e-004 -9.997579e-001
    outer loop
      vertex   4.681542e+002 -1.427113e+002 2.037810e+002
      vertex   4.671730e+002 -1.401291e+002 2.037602e+002
      vertex   5.000227e+002 -1.291221e+002 2.044867e+002
    endloop
  endfacet
  facet normal -3.551047e-001 9.347964e-001 -7.509251e-003
    outer loop
      vertex   4.671614e+002 -1.401293e+002 2.042877e+002
      vertex   4.736392e+002 -1.376695e+002 2.041672e+002
      vertex   4.671730e+002 -1.401291e+002 2.037602e+002
    endloop
  endfacet
  facet normal -3.551047e-001 9.347964e-001 -7.509219e-003
    outer loop
      vertex   4.671614e+002 -1.401293e+002 2.042877e+002
      vertex   4.801110e+002 -1.352099e+002 2.043104e+002
      vertex   4.736392e+002 -1.376695e+002 2.041672e+002
    endloop
  endfacet
  facet normal -3.551047e-001 9.347964e-001 -7.509219e-003
    outer loop
      vertex   4.671614e+002 -1.401293e+002 2.042877e+002
      vertex   4.865828e+002 -1.327503e+002 2.044536e+002
      vertex   4.801110e+002 -1.352099e+002 2.043104e+002
    endloop
  endfacet
  facet normal -3.551047e-001 9.347964e-001 -7.509219e-003
    outer loop
      vertex   4.671614e+002 -1.401293e+002 2.042877e+002
      vertex   4.930546e+002 -1.302907e+002 2.045968e+002
      vertex   4.865828e+002 -1.327503e+002 2.044536e+002
    endloop
  endfacet
  facet normal -3.551047e-001 9.347964e-001 -7.509219e-003
    outer loop
      vertex   4.671614e+002 -1.401293e+002 2.042877e+002
      vertex   4.995264e+002 -1.278311e+002 2.047400e+002
      vertex   4.930546e+002 -1.302907e+002 2.045968e+002
    endloop
  endfacet
  facet normal -3.551047e-001 9.347964e-001 -7.509235e-003
    outer loop
      vertex   4.671614e+002 -1.401293e+002 2.042877e+002
      vertex   5.318797e+002 -1.155330e+002 2.057198e+002
      vertex   4.995264e+002 -1.278311e+002 2.047400e+002
    endloop
  endfacet
  facet normal -3.551047e-001 9.347964e-001 -7.509252e-003
    outer loop
      vertex   4.995264e+002 -1.278311e+002 2.047400e+002
      vertex   5.318797e+002 -1.155330e+002 2.057198e+002
      vertex   5.059982e+002 -1.253714e+002 2.048832e+002
    endloop
  endfacet
  facet normal -3.551047e-001 9.347964e-001 -7.509252e-003
    outer loop
      vertex   5.318913e+002 -1.155329e+002 2.051923e+002
      vertex   5.059982e+002 -1.253714e+002 2.048832e+002
      vertex   5.124700e+002 -1.229118e+002 2.050264e+002
    endloop
  endfacet
  facet normal -3.551047e-001 9.347964e-001 -7.509251e-003
    outer loop
      vertex   5.189419e+002 -1.204522e+002 2.051697e+002
      vertex   5.124700e+002 -1.229118e+002 2.050264e+002
      vertex   5.318797e+002 -1.155330e+002 2.057198e+002
    endloop
  endfacet
  facet normal -3.551047e-001 9.347964e-001 -7.509252e-003
    outer loop
      vertex   5.254137e+002 -1.179926e+002 2.053129e+002
      vertex   5.318797e+002 -1.155330e+002 2.057198e+002
      vertex   5.318913e+002 -1.155329e+002 2.051923e+002
    endloop
  endfacet
  facet normal -3.551047e-001 9.347964e-001 -7.509252e-003
    outer loop
      vertex   5.189419e+002 -1.204522e+002 2.051697e+002
      vertex   5.318913e+002 -1.155329e+002 2.051923e+002
      vertex   5.124700e+002 -1.229118e+002 2.050264e+002
    endloop
  endfacet
  facet normal -3.551047e-001 9.347964e-001 -7.509252e-003
    outer loop
      vertex   5.189419e+002 -1.204522e+002 2.051697e+002
      vertex   5.254137e+002 -1.179926e+002 2.053129e+002
      vertex   5.318913e+002 -1.155329e+002 2.051923e+002
    endloop
  endfacet
  facet normal -3.551047e-001 9.347964e-001 -7.509252e-003
    outer loop
      vertex   5.189419e+002 -1.204522e+002 2.051697e+002
      vertex   5.318797e+002 -1.155330e+002 2.057198e+002
      vertex   5.254137e+002 -1.179926e+002 2.053129e+002
    endloop
  endfacet
  facet normal -3.551047e-001 9.347964e-001 -7.509252e-003
    outer loop
      vertex   5.059982e+002 -1.253714e+002 2.048832e+002
      vertex   5.318913e+002 -1.155329e+002 2.051923e+002
      vertex   4.995264e+002 -1.278311e+002 2.047400e+002
    endloop
  endfacet
  facet normal -3.551047e-001 9.347964e-001 -7.509268e-003
    outer loop
      vertex   4.995264e+002 -1.278311e+002 2.047400e+002
      vertex   5.318913e+002 -1.155329e+002 2.051923e+002
      vertex   4.671730e+002 -1.401291e+002 2.037602e+002
    endloop
  endfacet
  facet normal -3.551047e-001 9.347964e-001 -7.509284e-003
    outer loop
      vertex   4.930546e+002 -1.302907e+002 2.045968e+002
      vertex   4.671730e+002 -1.401291e+002 2.037602e+002
      vertex   4.865828e+002 -1.327503e+002 2.044536e+002
    endloop
  endfacet
  facet normal -3.551047e-001 9.347964e-001 -7.509284e-003
    outer loop
      vertex   4.930546e+002 -1.302907e+002 2.045968e+002
      vertex   4.995264e+002 -1.278311e+002 2.047400e+002
      vertex   4.671730e+002 -1.401291e+002 2.037602e+002
    endloop
  endfacet
  facet normal -3.551047e-001 9.347964e-001 -7.509284e-003
    outer loop
      vertex   4.865828e+002 -1.327503e+002 2.044536e+002
      vertex   4.671730e+002 -1.401291e+002 2.037602e+002
      vertex   4.801110e+002 -1.352099e+002 2.043104e+002
    endloop
  endfacet
  facet normal -3.551047e-001 9.347964e-001 -7.509284e-003
    outer loop
      vertex   4.801110e+002 -1.352099e+002 2.043104e+002
      vertex   4.671730e+002 -1.401291e+002 2.037602e+002
      vertex   4.736392e+002 -1.376695e+002 2.041672e+002
    endloop
  endfacet
  facet normal -3.551047e-001 9.347964e-001 -7.509252e-003
    outer loop
      vertex   5.124700e+002 -1.229118e+002 2.050264e+002
      vertex   5.059982e+002 -1.253714e+002 2.048832e+002
      vertex   5.318797e+002 -1.155330e+002 2.057198e+002
    endloop
  endfacet
  facet normal -2.180614e-002 -2.555124e-004 9.997622e-001
    outer loop
      vertex   4.563742e+002 -1.470441e+002 2.040490e+002
      vertex   4.570130e+002 -1.453596e+002 2.040634e+002
      vertex   4.554744e+002 -1.444324e+002 2.040301e+002
    endloop
  endfacet
  facet normal -2.188422e-002 -2.258892e-004 9.997605e-001
    outer loop
      vertex   4.563742e+002 -1.470441e+002 2.040490e+002
      vertex   4.598975e+002 -1.443270e+002 2.041268e+002
      vertex   4.570130e+002 -1.453596e+002 2.040634e+002
    endloop
  endfacet
  facet normal -2.190183e-002 -2.030498e-004 9.997601e-001
    outer loop
      vertex   4.563742e+002 -1.470441e+002 2.040490e+002
      vertex   4.622849e+002 -1.449202e+002 2.041790e+002
      vertex   4.598975e+002 -1.443270e+002 2.041268e+002
    endloop
  endfacet
  facet normal -2.192317e-002 -2.889870e-004 9.997596e-001
    outer loop
      vertex   4.598975e+002 -1.443270e+002 2.041268e+002
      vertex   4.622849e+002 -1.449202e+002 2.041790e+002
      vertex   4.613213e+002 -1.438043e+002 2.041581e+002
    endloop
  endfacet
  facet normal -2.198668e-002 -3.035952e-004 9.997582e-001
    outer loop
      vertex   4.613241e+002 -1.423304e+002 2.041587e+002
      vertex   4.613213e+002 -1.438043e+002 2.041581e+002
      vertex   4.671614e+002 -1.401293e+002 2.042877e+002
    endloop
  endfacet
  facet normal -2.191776e-002 -3.037259e-004 9.997597e-001
    outer loop
      vertex   4.613241e+002 -1.423304e+002 2.041587e+002
      vertex   4.598975e+002 -1.443270e+002 2.041268e+002
      vertex   4.613213e+002 -1.438043e+002 2.041581e+002
    endloop
  endfacet
  facet normal -2.184781e-002 -3.537365e-004 9.997612e-001
    outer loop
      vertex   4.613241e+002 -1.423304e+002 2.041587e+002
      vertex   4.554744e+002 -1.444324e+002 2.040301e+002
      vertex   4.598975e+002 -1.443270e+002 2.041268e+002
    endloop
  endfacet
  facet normal -2.184847e-002 -3.257944e-004 9.997612e-001
    outer loop
      vertex   4.598975e+002 -1.443270e+002 2.041268e+002
      vertex   4.554744e+002 -1.444324e+002 2.040301e+002
      vertex   4.570130e+002 -1.453596e+002 2.040634e+002
    endloop
  endfacet
  facet normal -2.198088e-002 -3.188676e-004 9.997583e-001
    outer loop
      vertex   4.681426e+002 -1.427114e+002 2.043084e+002
      vertex   4.671614e+002 -1.401293e+002 2.042877e+002
      vertex   4.622849e+002 -1.449202e+002 2.041790e+002
    endloop
  endfacet
  facet normal -2.197027e-002 -3.296748e-004 9.997586e-001
    outer loop
      vertex   4.622849e+002 -1.449202e+002 2.041790e+002
      vertex   4.671614e+002 -1.401293e+002 2.042877e+002
      vertex   4.613213e+002 -1.438043e+002 2.041581e+002
    endloop
  endfacet
  facet normal 3.283655e-001 -9.445254e-001 6.920629e-003
    outer loop
      vertex   4.563857e+002 -1.470439e+002 2.035216e+002
      vertex   4.574750e+002 -1.466631e+002 2.038093e+002
      vertex   4.563742e+002 -1.470441e+002 2.040490e+002
    endloop
  endfacet
  facet normal 3.374924e-001 -9.407631e-001 -3.261327e-002
    outer loop
      vertex   4.563857e+002 -1.470439e+002 2.035216e+002
      vertex   4.603759e+002 -1.456246e+002 2.038730e+002
      vertex   4.574750e+002 -1.466631e+002 2.038093e+002
    endloop
  endfacet
  facet normal 3.387093e-001 -9.394729e-001 -5.163978e-002
    outer loop
      vertex   4.563857e+002 -1.470439e+002 2.035216e+002
      vertex   4.622964e+002 -1.449201e+002 2.036515e+002
      vertex   4.603759e+002 -1.456246e+002 2.038730e+002
    endloop
  endfacet
  facet normal 3.445886e-001 -9.387524e-001 1.622037e-003
    outer loop
      vertex   4.603759e+002 -1.456246e+002 2.038730e+002
      vertex   4.622964e+002 -1.449201e+002 2.036515e+002
      vertex   4.618055e+002 -1.450999e+002 2.039045e+002
    endloop
  endfacet
  facet normal 3.528984e-001 -9.356529e-001 -4.053515e-003
    outer loop
      vertex   4.622849e+002 -1.449202e+002 2.041790e+002
      vertex   4.618055e+002 -1.450999e+002 2.039045e+002
      vertex   4.681426e+002 -1.427114e+002 2.043084e+002
    endloop
  endfacet
  facet normal 3.443407e-001 -9.387558e-001 1.292603e-002
    outer loop
      vertex   4.622849e+002 -1.449202e+002 2.041790e+002
      vertex   4.603759e+002 -1.456246e+002 2.038730e+002
      vertex   4.618055e+002 -1.450999e+002 2.039045e+002
    endloop
  endfacet
  facet normal 3.361401e-001 -9.395085e-001 6.582936e-002
    outer loop
      vertex   4.622849e+002 -1.449202e+002 2.041790e+002
      vertex   4.563742e+002 -1.470441e+002 2.040490e+002
      vertex   4.603759e+002 -1.456246e+002 2.038730e+002
    endloop
  endfacet
  facet normal 3.357560e-001 -9.407860e-001 4.679415e-002
    outer loop
      vertex   4.603759e+002 -1.456246e+002 2.038730e+002
      vertex   4.563742e+002 -1.470441e+002 2.040490e+002
      vertex   4.574750e+002 -1.466631e+002 2.038093e+002
    endloop
  endfacet
  facet normal 3.526687e-001 -9.357185e-001 7.455347e-003
    outer loop
      vertex   4.681542e+002 -1.427113e+002 2.037810e+002
      vertex   4.681426e+002 -1.427114e+002 2.043084e+002
      vertex   4.622964e+002 -1.449201e+002 2.036515e+002
    endloop
  endfacet
  facet normal 3.516558e-001 -9.359693e-001 1.731232e-002
    outer loop
      vertex   4.622964e+002 -1.449201e+002 2.036515e+002
      vertex   4.681426e+002 -1.427114e+002 2.043084e+002
      vertex   4.618055e+002 -1.450999e+002 2.039045e+002
    endloop
  endfacet
  facet normal 2.180614e-002 2.555124e-004 -9.997622e-001
    outer loop
      vertex   4.554859e+002 -1.444323e+002 2.035026e+002
      vertex   4.570245e+002 -1.453595e+002 2.035359e+002
      vertex   4.563857e+002 -1.470439e+002 2.035216e+002
    endloop
  endfacet
  facet normal 2.184847e-002 3.257952e-004 -9.997612e-001
    outer loop
      vertex   4.554859e+002 -1.444323e+002 2.035026e+002
      vertex   4.599090e+002 -1.443268e+002 2.035993e+002
      vertex   4.570245e+002 -1.453595e+002 2.035359e+002
    endloop
  endfacet
  facet normal 2.184781e-002 3.537374e-004 -9.997612e-001
    outer loop
      vertex   4.554859e+002 -1.444323e+002 2.035026e+002
      vertex   4.613357e+002 -1.423303e+002 2.036312e+002
      vertex   4.599090e+002 -1.443268e+002 2.035993e+002
    endloop
  endfacet
  facet normal 2.191776e-002 3.037260e-004 -9.997597e-001
    outer loop
      vertex   4.599090e+002 -1.443268e+002 2.035993e+002
      vertex   4.613357e+002 -1.423303e+002 2.036312e+002
      vertex   4.613329e+002 -1.438041e+002 2.036307e+002
    endloop
  endfacet
  facet normal 2.197521e-002 3.339361e-004 -9.997585e-001
    outer loop
      vertex   4.622964e+002 -1.449201e+002 2.036515e+002
      vertex   4.613329e+002 -1.438041e+002 2.036307e+002
      vertex   4.681542e+002 -1.427113e+002 2.037810e+002
    endloop
  endfacet
  facet normal 2.192317e-002 2.889869e-004 -9.997596e-001
    outer loop
      vertex   4.622964e+002 -1.449201e+002 2.036515e+002
      vertex   4.599090e+002 -1.443268e+002 2.035993e+002
      vertex   4.613329e+002 -1.438041e+002 2.036307e+002
    endloop
  endfacet
  facet normal 2.190183e-002 2.030487e-004 -9.997601e-001
    outer loop
      vertex   4.622964e+002 -1.449201e+002 2.036515e+002
      vertex   4.563857e+002 -1.470439e+002 2.035216e+002
      vertex   4.599090e+002 -1.443268e+002 2.035993e+002
    endloop
  endfacet
  facet normal 2.188422e-002 2.258883e-004 -9.997605e-001
    outer loop
      vertex   4.599090e+002 -1.443268e+002 2.035993e+002
      vertex   4.563857e+002 -1.470439e+002 2.035216e+002
      vertex   4.570245e+002 -1.453595e+002 2.035359e+002
    endloop
  endfacet
  facet normal 2.198092e-002 3.188791e-004 -9.997583e-001
    outer loop
      vertex   4.671730e+002 -1.401291e+002 2.037602e+002
      vertex   4.681542e+002 -1.427113e+002 2.037810e+002
      vertex   4.613357e+002 -1.423303e+002 2.036312e+002
    endloop
  endfacet
  facet normal 2.198006e-002 3.036076e-004 -9.997584e-001
    outer loop
      vertex   4.613357e+002 -1.423303e+002 2.036312e+002
      vertex   4.681542e+002 -1.427113e+002 2.037810e+002
      vertex   4.613329e+002 -1.438041e+002 2.036307e+002
    endloop
  endfacet
  facet normal -3.283699e-001 9.445239e-001 -6.920725e-003
    outer loop
      vertex   4.554744e+002 -1.444324e+002 2.040301e+002
      vertex   4.565625e+002 -1.440559e+002 2.037901e+002
      vertex   4.554859e+002 -1.444323e+002 2.035026e+002
    endloop
  endfacet
  facet normal -3.357784e-001 9.408001e-001 -4.634740e-002
    outer loop
      vertex   4.554744e+002 -1.444324e+002 2.040301e+002
      vertex   4.594305e+002 -1.430292e+002 2.038531e+002
      vertex   4.565625e+002 -1.440559e+002 2.037901e+002
    endloop
  endfacet
  facet normal -3.361762e-001 9.395348e-001 -6.526809e-002
    outer loop
      vertex   4.554744e+002 -1.444324e+002 2.040301e+002
      vertex   4.613241e+002 -1.423304e+002 2.041587e+002
      vertex   4.594305e+002 -1.430292e+002 2.038531e+002
    endloop
  endfacet
  facet normal -3.443432e-001 9.387555e-001 -1.287815e-002
    outer loop
      vertex   4.594305e+002 -1.430292e+002 2.038531e+002
      vertex   4.613241e+002 -1.423304e+002 2.041587e+002
      vertex   4.608488e+002 -1.425085e+002 2.038843e+002
    endloop
  endfacet
  facet normal -3.523988e-001 9.356596e-001 -1.887324e-002
    outer loop
      vertex   4.613357e+002 -1.423303e+002 2.036312e+002
      vertex   4.608488e+002 -1.425085e+002 2.038843e+002
      vertex   4.671730e+002 -1.401291e+002 2.037602e+002
    endloop
  endfacet
  facet normal -3.445890e-001 9.387522e-001 -1.669996e-003
    outer loop
      vertex   4.613357e+002 -1.423303e+002 2.036312e+002
      vertex   4.594305e+002 -1.430292e+002 2.038531e+002
      vertex   4.608488e+002 -1.425085e+002 2.038843e+002
    endloop
  endfacet
  facet normal -3.387208e-001 9.394995e-001 5.107656e-002
    outer loop
      vertex   4.613357e+002 -1.423303e+002 2.036312e+002
      vertex   4.554859e+002 -1.444323e+002 2.035026e+002
      vertex   4.594305e+002 -1.430292e+002 2.038531e+002
    endloop
  endfacet
  facet normal -3.374953e-001 9.407775e-001 3.216548e-002
    outer loop
      vertex   4.594305e+002 -1.430292e+002 2.038531e+002
      vertex   4.554859e+002 -1.444323e+002 2.035026e+002
      vertex   4.565625e+002 -1.440559e+002 2.037901e+002
    endloop
  endfacet
  facet normal -3.526728e-001 9.357170e-001 -7.455438e-003
    outer loop
      vertex   4.671614e+002 -1.401293e+002 2.042877e+002
      vertex   4.671730e+002 -1.401291e+002 2.037602e+002
      vertex   4.613241e+002 -1.423304e+002 2.041587e+002
    endloop
  endfacet
  facet normal -3.520955e-001 9.359611e-001 2.369272e-003
    outer loop
      vertex   4.613241e+002 -1.423304e+002 2.041587e+002
      vertex   4.671730e+002 -1.401291e+002 2.037602e+002
      vertex   4.608488e+002 -1.425085e+002 2.038843e+002
    endloop
  endfacet
  facet normal -2.069709e-002 -4.184946e-007 9.997858e-001
    outer loop
      vertex   3.969744e+002 -1.551742e+002 2.027951e+002
      vertex   3.970604e+002 -1.579352e+002 2.027969e+002
      vertex   4.007027e+002 -1.550225e+002 2.028723e+002
    endloop
  endfacet
  facet normal -2.070329e-002 7.341268e-006 9.997857e-001
    outer loop
      vertex   4.007027e+002 -1.550225e+002 2.028723e+002
      vertex   3.970604e+002 -1.579352e+002 2.027969e+002
      vertex   4.021453e+002 -1.563284e+002 2.029022e+002
    endloop
  endfacet
  facet normal -2.073257e-002 1.405391e-005 9.997851e-001
    outer loop
      vertex   4.044273e+002 -1.548009e+002 2.029495e+002
      vertex   4.021453e+002 -1.563284e+002 2.029022e+002
      vertex   4.072656e+002 -1.559707e+002 2.030084e+002
    endloop
  endfacet
  facet normal -2.077915e-002 1.055339e-005 9.997841e-001
    outer loop
      vertex   4.081473e+002 -1.545093e+002 2.030267e+002
      vertex   4.072656e+002 -1.559707e+002 2.030084e+002
      vertex   4.118612e+002 -1.541478e+002 2.031039e+002
    endloop
  endfacet
  facet normal -2.074300e-002 -1.126643e-005 9.997848e-001
    outer loop
      vertex   4.081473e+002 -1.545093e+002 2.030267e+002
      vertex   4.044273e+002 -1.548009e+002 2.029495e+002
      vertex   4.072656e+002 -1.559707e+002 2.030084e+002
    endloop
  endfacet
  facet normal -2.069654e-002 -1.405358e-005 9.997858e-001
    outer loop
      vertex   3.970604e+002 -1.579352e+002 2.027969e+002
      vertex   4.008408e+002 -1.577814e+002 2.028752e+002
      vertex   4.021453e+002 -1.563284e+002 2.029022e+002
    endloop
  endfacet
  facet normal -2.071837e-002 5.557823e-006 9.997854e-001
    outer loop
      vertex   4.021453e+002 -1.563284e+002 2.029022e+002
      vertex   4.008408e+002 -1.577814e+002 2.028752e+002
      vertex   4.046173e+002 -1.575567e+002 2.029534e+002
    endloop
  endfacet
  facet normal -2.074426e-002 4.878885e-006 9.997848e-001
    outer loop
      vertex   4.072656e+002 -1.559707e+002 2.030084e+002
      vertex   4.046173e+002 -1.575567e+002 2.029534e+002
      vertex   4.083890e+002 -1.572610e+002 2.030317e+002
    endloop
  endfacet
  facet normal -2.077591e-002 -2.268782e-005 9.997842e-001
    outer loop
      vertex   4.121545e+002 -1.568945e+002 2.031100e+002
      vertex   4.072656e+002 -1.559707e+002 2.030084e+002
      vertex   4.083890e+002 -1.572610e+002 2.030317e+002
    endloop
  endfacet
  facet normal -2.077782e-002 -3.277283e-005 9.997841e-001
    outer loop
      vertex   4.121545e+002 -1.568945e+002 2.031100e+002
      vertex   4.134669e+002 -1.553599e+002 2.031373e+002
      vertex   4.072656e+002 -1.559707e+002 2.030084e+002
    endloop
  endfacet
  facet normal -2.082064e-002 3.865729e-006 9.997832e-001
    outer loop
      vertex   4.121545e+002 -1.568945e+002 2.031100e+002
      vertex   4.159124e+002 -1.564573e+002 2.031882e+002
      vertex   4.134669e+002 -1.553599e+002 2.031373e+002
    endloop
  endfacet
  facet normal -2.084795e-002 -5.701441e-005 9.997827e-001
    outer loop
      vertex   4.134669e+002 -1.553599e+002 2.031373e+002
      vertex   4.159124e+002 -1.564573e+002 2.031882e+002
      vertex   4.196461e+002 -1.545561e+002 2.032662e+002
    endloop
  endfacet
  facet normal -2.086759e-002 -1.297237e-005 9.997822e-001
    outer loop
      vertex   4.155675e+002 -1.537166e+002 2.031811e+002
      vertex   4.196461e+002 -1.545561e+002 2.032662e+002
      vertex   4.192652e+002 -1.532158e+002 2.032582e+002
    endloop
  endfacet
  facet normal -2.085906e-002 2.845864e-005 9.997824e-001
    outer loop
      vertex   4.155675e+002 -1.537166e+002 2.031811e+002
      vertex   4.134669e+002 -1.553599e+002 2.031373e+002
      vertex   4.196461e+002 -1.545561e+002 2.032662e+002
    endloop
  endfacet
  facet normal -2.081729e-002 -2.496704e-005 9.997833e-001
    outer loop
      vertex   4.155675e+002 -1.537166e+002 2.031811e+002
      vertex   4.118612e+002 -1.541478e+002 2.031039e+002
      vertex   4.134669e+002 -1.553599e+002 2.031373e+002
    endloop
  endfacet
  facet normal -2.078305e-002 2.040651e-005 9.997840e-001
    outer loop
      vertex   4.134669e+002 -1.553599e+002 2.031373e+002
      vertex   4.118612e+002 -1.541478e+002 2.031039e+002
      vertex   4.072656e+002 -1.559707e+002 2.030084e+002
    endloop
  endfacet
  facet normal -2.073030e-002 -1.845314e-005 9.997851e-001
    outer loop
      vertex   4.021453e+002 -1.563284e+002 2.029022e+002
      vertex   4.046173e+002 -1.575567e+002 2.029534e+002
      vertex   4.072656e+002 -1.559707e+002 2.030084e+002
    endloop
  endfacet
  facet normal -2.086658e-002 -2.041109e-005 9.997823e-001
    outer loop
      vertex   4.159124e+002 -1.564573e+002 2.031882e+002
      vertex   4.196614e+002 -1.559496e+002 2.032665e+002
      vertex   4.196461e+002 -1.545561e+002 2.032662e+002
    endloop
  endfacet
  facet normal -2.092296e-002 -2.103262e-005 9.997811e-001
    outer loop
      vertex   4.196461e+002 -1.545561e+002 2.032662e+002
      vertex   4.196614e+002 -1.559496e+002 2.032665e+002
      vertex   4.234003e+002 -1.553715e+002 2.033447e+002
    endloop
  endfacet
  facet normal -2.098816e-002 -1.616850e-005 9.997797e-001
    outer loop
      vertex   4.257972e+002 -1.535602e+002 2.033951e+002
      vertex   4.234003e+002 -1.553715e+002 2.033447e+002
      vertex   4.271276e+002 -1.547232e+002 2.034230e+002
    endloop
  endfacet
  facet normal -2.104730e-002 -8.384237e-005 9.997785e-001
    outer loop
      vertex   4.308420e+002 -1.540050e+002 2.035012e+002
      vertex   4.257972e+002 -1.535602e+002 2.033951e+002
      vertex   4.271276e+002 -1.547232e+002 2.034230e+002
    endloop
  endfacet
  facet normal -2.104833e-002 -9.553134e-005 9.997785e-001
    outer loop
      vertex   4.308420e+002 -1.540050e+002 2.035012e+002
      vertex   4.319143e+002 -1.523730e+002 2.035240e+002
      vertex   4.257972e+002 -1.535602e+002 2.033951e+002
    endloop
  endfacet
  facet normal -2.113585e-002 -3.800023e-005 9.997766e-001
    outer loop
      vertex   4.308420e+002 -1.540050e+002 2.035012e+002
      vertex   4.345424e+002 -1.532171e+002 2.035795e+002
      vertex   4.319143e+002 -1.523730e+002 2.035240e+002
    endloop
  endfacet
  facet normal -2.117152e-002 -1.491141e-004 9.997758e-001
    outer loop
      vertex   4.319143e+002 -1.523730e+002 2.035240e+002
      vertex   4.345424e+002 -1.532171e+002 2.035795e+002
      vertex   4.379915e+002 -1.509958e+002 2.036529e+002
    endloop
  endfacet
  facet normal -2.121436e-002 -7.871501e-005 9.997749e-001
    outer loop
      vertex   4.339420e+002 -1.505209e+002 2.035670e+002
      vertex   4.379915e+002 -1.509958e+002 2.036529e+002
      vertex   4.375763e+002 -1.496754e+002 2.036442e+002
    endloop
  endfacet
  facet normal -2.120519e-002 -4.813291e-007 9.997751e-001
    outer loop
      vertex   4.339420e+002 -1.505209e+002 2.035670e+002
      vertex   4.319143e+002 -1.523730e+002 2.035240e+002
      vertex   4.379915e+002 -1.509958e+002 2.036529e+002
    endloop
  endfacet
  facet normal -2.112518e-002 -8.810685e-005 9.997768e-001
    outer loop
      vertex   4.339420e+002 -1.505209e+002 2.035670e+002
      vertex   4.302924e+002 -1.512979e+002 2.034898e+002
      vertex   4.319143e+002 -1.523730e+002 2.035240e+002
    endloop
  endfacet
  facet normal -2.106685e-002 -5.979620e-008 9.997781e-001
    outer loop
      vertex   4.319143e+002 -1.523730e+002 2.035240e+002
      vertex   4.302924e+002 -1.512979e+002 2.034898e+002
      vertex   4.257972e+002 -1.535602e+002 2.033951e+002
    endloop
  endfacet
  facet normal -2.106139e-002 -1.089995e-005 9.997782e-001
    outer loop
      vertex   4.257972e+002 -1.535602e+002 2.033951e+002
      vertex   4.302924e+002 -1.512979e+002 2.034898e+002
      vertex   4.266289e+002 -1.520063e+002 2.034126e+002
    endloop
  endfacet
  facet normal -2.098165e-002 -5.359832e-005 9.997799e-001
    outer loop
      vertex   4.229527e+002 -1.526456e+002 2.033354e+002
      vertex   4.257972e+002 -1.535602e+002 2.033951e+002
      vertex   4.266289e+002 -1.520063e+002 2.034126e+002
    endloop
  endfacet
  facet normal -2.095506e-002 2.915896e-005 9.997804e-001
    outer loop
      vertex   4.229527e+002 -1.526456e+002 2.033354e+002
      vertex   4.196461e+002 -1.545561e+002 2.032662e+002
      vertex   4.257972e+002 -1.535602e+002 2.033951e+002
    endloop
  endfacet
  facet normal -2.092182e-002 -2.839137e-005 9.997811e-001
    outer loop
      vertex   4.229527e+002 -1.526456e+002 2.033354e+002
      vertex   4.192652e+002 -1.532158e+002 2.032582e+002
      vertex   4.196461e+002 -1.545561e+002 2.032662e+002
    endloop
  endfacet
  facet normal -2.093669e-002 -8.430397e-005 9.997808e-001
    outer loop
      vertex   4.196461e+002 -1.545561e+002 2.032662e+002
      vertex   4.234003e+002 -1.553715e+002 2.033447e+002
      vertex   4.257972e+002 -1.535602e+002 2.033951e+002
    endloop
  endfacet
  facet normal -2.121296e-002 -8.474239e-005 9.997750e-001
    outer loop
      vertex   4.345424e+002 -1.532171e+002 2.035795e+002
      vertex   4.382272e+002 -1.523599e+002 2.036578e+002
      vertex   4.379915e+002 -1.509958e+002 2.036529e+002
    endloop
  endfacet
  facet normal -2.130440e-002 -1.005497e-004 9.997730e-001
    outer loop
      vertex   4.379915e+002 -1.509958e+002 2.036529e+002
      vertex   4.382272e+002 -1.523599e+002 2.036578e+002
      vertex   4.418953e+002 -1.514335e+002 2.037360e+002
    endloop
  endfacet
  facet normal -2.140786e-002 -9.925887e-005 9.997708e-001
    outer loop
      vertex   4.440228e+002 -1.494299e+002 2.037818e+002
      vertex   4.418953e+002 -1.514335e+002 2.037360e+002
      vertex   4.455453e+002 -1.504384e+002 2.038143e+002
    endloop
  endfacet
  facet normal -2.148563e-002 -2.167322e-004 9.997691e-001
    outer loop
      vertex   4.491761e+002 -1.493748e+002 2.038925e+002
      vertex   4.440228e+002 -1.494299e+002 2.037818e+002
      vertex   4.455453e+002 -1.504384e+002 2.038143e+002
    endloop
  endfacet
  facet normal -2.148555e-002 -2.240810e-004 9.997691e-001
    outer loop
      vertex   4.491761e+002 -1.493748e+002 2.038925e+002
      vertex   4.500023e+002 -1.476768e+002 2.039107e+002
      vertex   4.440228e+002 -1.494299e+002 2.037818e+002
    endloop
  endfacet
  facet normal -2.162414e-002 -1.566099e-004 9.997662e-001
    outer loop
      vertex   4.491761e+002 -1.493748e+002 2.038925e+002
      vertex   4.527860e+002 -1.482433e+002 2.039708e+002
      vertex   4.500023e+002 -1.476768e+002 2.039107e+002
    endloop
  endfacet
  facet normal -2.164991e-002 -2.832809e-004 9.997656e-001
    outer loop
      vertex   4.500023e+002 -1.476768e+002 2.039107e+002
      vertex   4.527860e+002 -1.482433e+002 2.039708e+002
      vertex   4.554744e+002 -1.444324e+002 2.040301e+002
    endloop
  endfacet
  facet normal -2.178600e-002 -5.363037e-005 9.997627e-001
    outer loop
      vertex   4.519354e+002 -1.456152e+002 2.039529e+002
      vertex   4.500023e+002 -1.476768e+002 2.039107e+002
      vertex   4.554744e+002 -1.444324e+002 2.040301e+002
    endloop
  endfacet
  facet normal -2.160246e-002 -2.258108e-004 9.997666e-001
    outer loop
      vertex   4.519354e+002 -1.456152e+002 2.039529e+002
      vertex   4.483750e+002 -1.467313e+002 2.038757e+002
      vertex   4.500023e+002 -1.476768e+002 2.039107e+002
    endloop
  endfacet
  facet normal -2.152442e-002 -9.144118e-005 9.997683e-001
    outer loop
      vertex   4.500023e+002 -1.476768e+002 2.039107e+002
      vertex   4.483750e+002 -1.467313e+002 2.038757e+002
      vertex   4.440228e+002 -1.494299e+002 2.037818e+002
    endloop
  endfacet
  facet normal -2.152043e-002 -9.788308e-005 9.997684e-001
    outer loop
      vertex   4.440228e+002 -1.494299e+002 2.037818e+002
      vertex   4.483750e+002 -1.467313e+002 2.038757e+002
      vertex   4.447941e+002 -1.477802e+002 2.037985e+002
    endloop
  endfacet
  facet normal -2.139184e-002 -1.580299e-004 9.997712e-001
    outer loop
      vertex   4.411941e+002 -1.487617e+002 2.037213e+002
      vertex   4.440228e+002 -1.494299e+002 2.037818e+002
      vertex   4.447941e+002 -1.477802e+002 2.037985e+002
    endloop
  endfacet
  facet normal -2.136026e-002 -2.426919e-005 9.997718e-001
    outer loop
      vertex   4.411941e+002 -1.487617e+002 2.037213e+002
      vertex   4.379915e+002 -1.509958e+002 2.036529e+002
      vertex   4.440228e+002 -1.494299e+002 2.037818e+002
    endloop
  endfacet
  facet normal -2.130288e-002 -1.065596e-004 9.997731e-001
    outer loop
      vertex   4.411941e+002 -1.487617e+002 2.037213e+002
      vertex   4.375763e+002 -1.496754e+002 2.036442e+002
      vertex   4.379915e+002 -1.509958e+002 2.036529e+002
    endloop
  endfacet
  facet normal -2.131527e-002 -1.976126e-004 9.997728e-001
    outer loop
      vertex   4.379915e+002 -1.509958e+002 2.036529e+002
      vertex   4.418953e+002 -1.514335e+002 2.037360e+002
      vertex   4.440228e+002 -1.494299e+002 2.037818e+002
    endloop
  endfacet
  facet normal -2.172760e-002 -2.284415e-004 9.997639e-001
    outer loop
      vertex   4.527860e+002 -1.482433e+002 2.039708e+002
      vertex   4.563742e+002 -1.470441e+002 2.040490e+002
      vertex   4.554744e+002 -1.444324e+002 2.040301e+002
    endloop
  endfacet
  facet normal -2.071754e-002 -8.403186e-006 9.997854e-001
    outer loop
      vertex   4.044273e+002 -1.548009e+002 2.029495e+002
      vertex   4.007027e+002 -1.550225e+002 2.028723e+002
      vertex   4.021453e+002 -1.563284e+002 2.029022e+002
    endloop
  endfacet
  facet normal 4.061791e-002 -9.991744e-001 8.403692e-004
    outer loop
      vertex   3.970604e+002 -1.579352e+002 2.027969e+002
      vertex   3.970714e+002 -1.579352e+002 2.022695e+002
      vertex   4.008408e+002 -1.577814e+002 2.028752e+002
    endloop
  endfacet
  facet normal 4.680675e-002 -9.981838e-001 -3.792473e-002
    outer loop
      vertex   4.008408e+002 -1.577814e+002 2.028752e+002
      vertex   3.970714e+002 -1.579352e+002 2.022695e+002
      vertex   4.022293e+002 -1.577074e+002 2.026401e+002
    endloop
  endfacet
  facet normal 7.083259e-002 -9.956227e-001 -6.097747e-002
    outer loop
      vertex   4.046173e+002 -1.575567e+002 2.029534e+002
      vertex   4.022293e+002 -1.577074e+002 2.026401e+002
      vertex   4.073850e+002 -1.573471e+002 2.027470e+002
    endloop
  endfacet
  facet normal 9.768086e-002 -9.942580e-001 -4.369806e-002
    outer loop
      vertex   4.083890e+002 -1.572610e+002 2.030317e+002
      vertex   4.073850e+002 -1.573471e+002 2.027470e+002
      vertex   4.121545e+002 -1.568945e+002 2.031100e+002
    endloop
  endfacet
  facet normal 7.754448e-002 -9.965949e-001 2.802492e-002
    outer loop
      vertex   4.083890e+002 -1.572610e+002 2.030317e+002
      vertex   4.046173e+002 -1.575567e+002 2.029534e+002
      vertex   4.073850e+002 -1.573471e+002 2.027470e+002
    endloop
  endfacet
  facet normal 3.913424e-002 -9.969129e-001 6.806735e-002
    outer loop
      vertex   3.970714e+002 -1.579352e+002 2.022695e+002
      vertex   4.008517e+002 -1.577814e+002 2.023477e+002
      vertex   4.022293e+002 -1.577074e+002 2.026401e+002
    endloop
  endfacet
  facet normal 5.999866e-002 -9.977468e-001 -3.002594e-002
    outer loop
      vertex   4.022293e+002 -1.577074e+002 2.026401e+002
      vertex   4.008517e+002 -1.577814e+002 2.023477e+002
      vertex   4.046282e+002 -1.575567e+002 2.024260e+002
    endloop
  endfacet
  facet normal 7.864035e-002 -9.965947e-001 -2.479337e-002
    outer loop
      vertex   4.073850e+002 -1.573471e+002 2.027470e+002
      vertex   4.046282e+002 -1.575567e+002 2.024260e+002
      vertex   4.083999e+002 -1.572610e+002 2.025042e+002
    endloop
  endfacet
  facet normal 9.578151e-002 -9.942589e-001 4.769787e-002
    outer loop
      vertex   4.121655e+002 -1.568945e+002 2.025825e+002
      vertex   4.073850e+002 -1.573471e+002 2.027470e+002
      vertex   4.083999e+002 -1.572610e+002 2.025042e+002
    endloop
  endfacet
  facet normal 9.637974e-002 -9.929773e-001 6.860711e-002
    outer loop
      vertex   4.121655e+002 -1.568945e+002 2.025825e+002
      vertex   4.136291e+002 -1.567321e+002 2.028768e+002
      vertex   4.073850e+002 -1.573471e+002 2.027470e+002
    endloop
  endfacet
  facet normal 1.161200e-001 -9.927920e-001 -2.966745e-002
    outer loop
      vertex   4.121655e+002 -1.568945e+002 2.025825e+002
      vertex   4.159234e+002 -1.564573e+002 2.026607e+002
      vertex   4.136291e+002 -1.567321e+002 2.028768e+002
    endloop
  endfacet
  facet normal 1.266687e-001 -9.879931e-001 8.845744e-002
    outer loop
      vertex   4.136291e+002 -1.567321e+002 2.028768e+002
      vertex   4.159234e+002 -1.564573e+002 2.026607e+002
      vertex   4.198510e+002 -1.559228e+002 2.030066e+002
    endloop
  endfacet
  facet normal 1.342909e-001 -9.909332e-001 -4.165481e-003
    outer loop
      vertex   4.159124e+002 -1.564573e+002 2.031882e+002
      vertex   4.198510e+002 -1.559228e+002 2.030066e+002
      vertex   4.196614e+002 -1.559496e+002 2.032665e+002
    endloop
  endfacet
  facet normal 1.302480e-001 -9.879872e-001 -8.316710e-002
    outer loop
      vertex   4.159124e+002 -1.564573e+002 2.031882e+002
      vertex   4.136291e+002 -1.567321e+002 2.028768e+002
      vertex   4.198510e+002 -1.559228e+002 2.030066e+002
    endloop
  endfacet
  facet normal 1.147849e-001 -9.927929e-001 3.444924e-002
    outer loop
      vertex   4.159124e+002 -1.564573e+002 2.031882e+002
      vertex   4.121545e+002 -1.568945e+002 2.031100e+002
      vertex   4.136291e+002 -1.567321e+002 2.028768e+002
    endloop
  endfacet
  facet normal 9.914779e-002 -9.929752e-001 -6.457500e-002
    outer loop
      vertex   4.136291e+002 -1.567321e+002 2.028768e+002
      vertex   4.121545e+002 -1.568945e+002 2.031100e+002
      vertex   4.073850e+002 -1.573471e+002 2.027470e+002
    endloop
  endfacet
  facet normal 6.824432e-002 -9.956236e-001 6.384589e-002
    outer loop
      vertex   4.022293e+002 -1.577074e+002 2.026401e+002
      vertex   4.046282e+002 -1.575567e+002 2.024260e+002
      vertex   4.073850e+002 -1.573471e+002 2.027470e+002
    endloop
  endfacet
  facet normal 1.340009e-001 -9.909334e-001 9.731293e-003
    outer loop
      vertex   4.159234e+002 -1.564573e+002 2.026607e+002
      vertex   4.196724e+002 -1.559496e+002 2.027390e+002
      vertex   4.198510e+002 -1.559228e+002 2.030066e+002
    endloop
  endfacet
  facet normal 1.528682e-001 -9.882416e-001 -3.126100e-003
    outer loop
      vertex   4.198510e+002 -1.559228e+002 2.030066e+002
      vertex   4.196724e+002 -1.559496e+002 2.027390e+002
      vertex   4.234113e+002 -1.553715e+002 2.028173e+002
    endloop
  endfacet
  facet normal 1.717945e-001 -9.848328e-001 -2.430888e-002
    outer loop
      vertex   4.260446e+002 -1.549200e+002 2.031364e+002
      vertex   4.234113e+002 -1.553715e+002 2.028173e+002
      vertex   4.271387e+002 -1.547232e+002 2.028955e+002
    endloop
  endfacet
  facet normal 1.884359e-001 -9.805567e-001 5.477708e-002
    outer loop
      vertex   4.308532e+002 -1.540050e+002 2.029738e+002
      vertex   4.260446e+002 -1.549200e+002 2.031364e+002
      vertex   4.271387e+002 -1.547232e+002 2.028955e+002
    endloop
  endfacet
  facet normal 1.887064e-001 -9.797069e-001 6.755899e-002
    outer loop
      vertex   4.308532e+002 -1.540050e+002 2.029738e+002
      vertex   4.322040e+002 -1.537246e+002 2.032662e+002
      vertex   4.260446e+002 -1.549200e+002 2.031364e+002
    endloop
  endfacet
  facet normal 2.087199e-001 -9.776048e-001 -2.692326e-002
    outer loop
      vertex   4.308532e+002 -1.540050e+002 2.029738e+002
      vertex   4.345535e+002 -1.532171e+002 2.030520e+002
      vertex   4.322040e+002 -1.537246e+002 2.032662e+002
    endloop
  endfacet
  facet normal 2.182310e-001 -9.715766e-001 9.172836e-002
    outer loop
      vertex   4.322040e+002 -1.537246e+002 2.032662e+002
      vertex   4.345535e+002 -1.532171e+002 2.030520e+002
      vertex   4.383232e+002 -1.523379e+002 2.033959e+002
    endloop
  endfacet
  facet normal 2.265668e-001 -9.739947e-001 1.333007e-003
    outer loop
      vertex   4.345424e+002 -1.532171e+002 2.035795e+002
      vertex   4.383232e+002 -1.523379e+002 2.033959e+002
      vertex   4.382272e+002 -1.523599e+002 2.036578e+002
    endloop
  endfacet
  facet normal 2.219245e-001 -9.715574e-001 -8.261764e-002
    outer loop
      vertex   4.345424e+002 -1.532171e+002 2.035795e+002
      vertex   4.322040e+002 -1.537246e+002 2.032662e+002
      vertex   4.383232e+002 -1.523379e+002 2.033959e+002
    endloop
  endfacet
  facet normal 2.073988e-001 -9.776090e-001 3.558522e-002
    outer loop
      vertex   4.345424e+002 -1.532171e+002 2.035795e+002
      vertex   4.308420e+002 -1.540050e+002 2.035012e+002
      vertex   4.322040e+002 -1.537246e+002 2.032662e+002
    endloop
  endfacet
  facet normal 1.913860e-001 -9.796987e-001 -5.968133e-002
    outer loop
      vertex   4.322040e+002 -1.537246e+002 2.032662e+002
      vertex   4.308420e+002 -1.540050e+002 2.035012e+002
      vertex   4.260446e+002 -1.549200e+002 2.031364e+002
    endloop
  endfacet
  facet normal 1.905772e-001 -9.805508e-001 -4.690962e-002
    outer loop
      vertex   4.260446e+002 -1.549200e+002 2.031364e+002
      vertex   4.308420e+002 -1.540050e+002 2.035012e+002
      vertex   4.271276e+002 -1.547232e+002 2.034230e+002
    endloop
  endfacet
  facet normal 1.706248e-001 -9.848350e-001 3.142096e-002
    outer loop
      vertex   4.234003e+002 -1.553715e+002 2.033447e+002
      vertex   4.260446e+002 -1.549200e+002 2.031364e+002
      vertex   4.271276e+002 -1.547232e+002 2.034230e+002
    endloop
  endfacet
  facet normal 1.609992e-001 -9.831116e-001 -8.701005e-002
    outer loop
      vertex   4.234003e+002 -1.553715e+002 2.033447e+002
      vertex   4.198510e+002 -1.559228e+002 2.030066e+002
      vertex   4.260446e+002 -1.549200e+002 2.031364e+002
    endloop
  endfacet
  facet normal 1.526046e-001 -9.882420e-001 9.469059e-003
    outer loop
      vertex   4.234003e+002 -1.553715e+002 2.033447e+002
      vertex   4.196614e+002 -1.559496e+002 2.032665e+002
      vertex   4.198510e+002 -1.559228e+002 2.030066e+002
    endloop
  endfacet
  facet normal 1.572169e-001 -9.831217e-001 9.356632e-002
    outer loop
      vertex   4.198510e+002 -1.559228e+002 2.030066e+002
      vertex   4.234113e+002 -1.553715e+002 2.028173e+002
      vertex   4.260446e+002 -1.549200e+002 2.031364e+002
    endloop
  endfacet
  facet normal 2.264229e-001 -9.739953e-001 8.118520e-003
    outer loop
      vertex   4.345535e+002 -1.532171e+002 2.030520e+002
      vertex   4.382384e+002 -1.523598e+002 2.031303e+002
      vertex   4.383232e+002 -1.523379e+002 2.033959e+002
    endloop
  endfacet
  facet normal 2.448186e-001 -9.695671e-001 1.884237e-003
    outer loop
      vertex   4.383232e+002 -1.523379e+002 2.033959e+002
      vertex   4.382384e+002 -1.523598e+002 2.031303e+002
      vertex   4.419065e+002 -1.514335e+002 2.032086e+002
    endloop
  endfacet
  facet normal 2.634331e-001 -9.643874e-001 -2.366274e-002
    outer loop
      vertex   4.443961e+002 -1.507612e+002 2.035257e+002
      vertex   4.419065e+002 -1.514335e+002 2.032086e+002
      vertex   4.455567e+002 -1.504383e+002 2.032868e+002
    endloop
  endfacet
  facet normal 2.793460e-001 -9.581859e-001 6.201211e-002
    outer loop
      vertex   4.491874e+002 -1.493748e+002 2.033651e+002
      vertex   4.443961e+002 -1.507612e+002 2.035257e+002
      vertex   4.455567e+002 -1.504383e+002 2.032868e+002
    endloop
  endfacet
  facet normal 2.794026e-001 -9.578790e-001 6.634709e-002
    outer loop
      vertex   4.491874e+002 -1.493748e+002 2.033651e+002
      vertex   4.504170e+002 -1.489960e+002 2.036555e+002
      vertex   4.443961e+002 -1.507612e+002 2.035257e+002
    endloop
  endfacet
  facet normal 2.994899e-001 -9.537972e-001 -2.401366e-002
    outer loop
      vertex   4.491874e+002 -1.493748e+002 2.033651e+002
      vertex   4.527974e+002 -1.482432e+002 2.034433e+002
      vertex   4.504170e+002 -1.489960e+002 2.036555e+002
    endloop
  endfacet
  facet normal 3.064408e-001 -9.493253e-001 6.982461e-002
    outer loop
      vertex   4.504170e+002 -1.489960e+002 2.036555e+002
      vertex   4.527974e+002 -1.482432e+002 2.034433e+002
      vertex   4.563742e+002 -1.470441e+002 2.040490e+002
    endloop
  endfacet
  facet normal 3.166276e-001 -9.382955e-001 -1.390986e-001
    outer loop
      vertex   4.527860e+002 -1.482433e+002 2.039708e+002
      vertex   4.504170e+002 -1.489960e+002 2.036555e+002
      vertex   4.563742e+002 -1.470441e+002 2.040490e+002
    endloop
  endfacet
  facet normal 2.981806e-001 -9.538092e-001 3.655638e-002
    outer loop
      vertex   4.527860e+002 -1.482433e+002 2.039708e+002
      vertex   4.491761e+002 -1.493748e+002 2.038925e+002
      vertex   4.504170e+002 -1.489960e+002 2.036555e+002
    endloop
  endfacet
  facet normal 2.820038e-001 -9.578572e-001 -5.462006e-002
    outer loop
      vertex   4.504170e+002 -1.489960e+002 2.036555e+002
      vertex   4.491761e+002 -1.493748e+002 2.038925e+002
      vertex   4.443961e+002 -1.507612e+002 2.035257e+002
    endloop
  endfacet
  facet normal 2.817607e-001 -9.581662e-001 -5.028424e-002
    outer loop
      vertex   4.443961e+002 -1.507612e+002 2.035257e+002
      vertex   4.491761e+002 -1.493748e+002 2.038925e+002
      vertex   4.455453e+002 -1.504384e+002 2.038143e+002
    endloop
  endfacet
  facet normal 2.621849e-001 -9.643952e-001 3.465460e-002
    outer loop
      vertex   4.418953e+002 -1.514335e+002 2.037360e+002
      vertex   4.443961e+002 -1.507612e+002 2.035257e+002
      vertex   4.455453e+002 -1.504384e+002 2.038143e+002
    endloop
  endfacet
  facet normal 2.520916e-001 -9.640312e-001 -8.422406e-002
    outer loop
      vertex   4.418953e+002 -1.514335e+002 2.037360e+002
      vertex   4.383232e+002 -1.523379e+002 2.033959e+002
      vertex   4.443961e+002 -1.507612e+002 2.035257e+002
    endloop
  endfacet
  facet normal 2.446809e-001 -9.695677e-001 8.344396e-003
    outer loop
      vertex   4.418953e+002 -1.514335e+002 2.037360e+002
      vertex   4.382272e+002 -1.523599e+002 2.036578e+002
      vertex   4.383232e+002 -1.523379e+002 2.033959e+002
    endloop
  endfacet
  facet normal 2.482770e-001 -9.640586e-001 9.460241e-002
    outer loop
      vertex   4.383232e+002 -1.523379e+002 2.033959e+002
      vertex   4.419065e+002 -1.514335e+002 2.032086e+002
      vertex   4.443961e+002 -1.507612e+002 2.035257e+002
    endloop
  endfacet
  facet normal 3.168438e-001 -9.484543e-001 6.668595e-003
    outer loop
      vertex   4.527974e+002 -1.482432e+002 2.034433e+002
      vertex   4.563857e+002 -1.470439e+002 2.035216e+002
      vertex   4.563742e+002 -1.470441e+002 2.040490e+002
    endloop
  endfacet
  facet normal 5.870339e-002 -9.977469e-001 3.248029e-002
    outer loop
      vertex   4.046173e+002 -1.575567e+002 2.029534e+002
      vertex   4.008408e+002 -1.577814e+002 2.028752e+002
      vertex   4.022293e+002 -1.577074e+002 2.026401e+002
    endloop
  endfacet
  facet normal 2.069709e-002 4.184785e-007 -9.997858e-001
    outer loop
      vertex   3.970714e+002 -1.579352e+002 2.022695e+002
      vertex   3.969853e+002 -1.551742e+002 2.022677e+002
      vertex   4.008517e+002 -1.577814e+002 2.023477e+002
    endloop
  endfacet
  facet normal 2.070261e-002 8.601533e-006 -9.997857e-001
    outer loop
      vertex   4.008517e+002 -1.577814e+002 2.023477e+002
      vertex   3.969853e+002 -1.551742e+002 2.022677e+002
      vertex   4.021562e+002 -1.563284e+002 2.023747e+002
    endloop
  endfacet
  facet normal 2.073030e-002 1.845320e-005 -9.997851e-001
    outer loop
      vertex   4.046282e+002 -1.575567e+002 2.024260e+002
      vertex   4.021562e+002 -1.563284e+002 2.023747e+002
      vertex   4.072765e+002 -1.559707e+002 2.024809e+002
    endloop
  endfacet
  facet normal 2.077591e-002 2.268790e-005 -9.997842e-001
    outer loop
      vertex   4.083999e+002 -1.572610e+002 2.025042e+002
      vertex   4.072765e+002 -1.559707e+002 2.024809e+002
      vertex   4.121655e+002 -1.568945e+002 2.025825e+002
    endloop
  endfacet
  facet normal 2.074426e-002 -4.878920e-006 -9.997848e-001
    outer loop
      vertex   4.083999e+002 -1.572610e+002 2.025042e+002
      vertex   4.046282e+002 -1.575567e+002 2.024260e+002
      vertex   4.072765e+002 -1.559707e+002 2.024809e+002
    endloop
  endfacet
  facet normal 2.069766e-002 -1.356784e-005 -9.997858e-001
    outer loop
      vertex   3.969853e+002 -1.551742e+002 2.022677e+002
      vertex   4.007136e+002 -1.550225e+002 2.023449e+002
      vertex   4.021562e+002 -1.563284e+002 2.023747e+002
    endloop
  endfacet
  facet normal 2.071754e-002 8.403208e-006 -9.997854e-001
    outer loop
      vertex   4.021562e+002 -1.563284e+002 2.023747e+002
      vertex   4.007136e+002 -1.550225e+002 2.023449e+002
      vertex   4.044383e+002 -1.548009e+002 2.024220e+002
    endloop
  endfacet
  facet normal 2.074300e-002 1.126647e-005 -9.997848e-001
    outer loop
      vertex   4.072765e+002 -1.559707e+002 2.024809e+002
      vertex   4.044383e+002 -1.548009e+002 2.024220e+002
      vertex   4.081583e+002 -1.545092e+002 2.024992e+002
    endloop
  endfacet
  facet normal 2.077915e-002 -1.055347e-005 -9.997841e-001
    outer loop
      vertex   4.118722e+002 -1.541478e+002 2.025764e+002
      vertex   4.072765e+002 -1.559707e+002 2.024809e+002
      vertex   4.081583e+002 -1.545092e+002 2.024992e+002
    endloop
  endfacet
  facet normal 2.078305e-002 -2.040666e-005 -9.997840e-001
    outer loop
      vertex   4.118722e+002 -1.541478e+002 2.025764e+002
      vertex   4.134779e+002 -1.553599e+002 2.026098e+002
      vertex   4.072765e+002 -1.559707e+002 2.024809e+002
    endloop
  endfacet
  facet normal 2.081729e-002 2.496713e-005 -9.997833e-001
    outer loop
      vertex   4.118722e+002 -1.541478e+002 2.025764e+002
      vertex   4.155785e+002 -1.537166e+002 2.026536e+002
      vertex   4.134779e+002 -1.553599e+002 2.026098e+002
    endloop
  endfacet
  facet normal 2.085906e-002 -2.845895e-005 -9.997824e-001
    outer loop
      vertex   4.134779e+002 -1.553599e+002 2.026098e+002
      vertex   4.155785e+002 -1.537166e+002 2.026536e+002
      vertex   4.196571e+002 -1.545561e+002 2.027387e+002
    endloop
  endfacet
  facet normal 2.086658e-002 2.041112e-005 -9.997823e-001
    outer loop
      vertex   4.159234e+002 -1.564573e+002 2.026607e+002
      vertex   4.196571e+002 -1.545561e+002 2.027387e+002
      vertex   4.196724e+002 -1.559496e+002 2.027390e+002
    endloop
  endfacet
  facet normal 2.084795e-002 5.701470e-005 -9.997827e-001
    outer loop
      vertex   4.159234e+002 -1.564573e+002 2.026607e+002
      vertex   4.134779e+002 -1.553599e+002 2.026098e+002
      vertex   4.196571e+002 -1.545561e+002 2.027387e+002
    endloop
  endfacet
  facet normal 2.082064e-002 -3.865820e-006 -9.997832e-001
    outer loop
      vertex   4.159234e+002 -1.564573e+002 2.026607e+002
      vertex   4.121655e+002 -1.568945e+002 2.025825e+002
      vertex   4.134779e+002 -1.553599e+002 2.026098e+002
    endloop
  endfacet
  facet normal 2.077782e-002 3.277298e-005 -9.997841e-001
    outer loop
      vertex   4.134779e+002 -1.553599e+002 2.026098e+002
      vertex   4.121655e+002 -1.568945e+002 2.025825e+002
      vertex   4.072765e+002 -1.559707e+002 2.024809e+002
    endloop
  endfacet
  facet normal 2.073257e-002 -1.405397e-005 -9.997851e-001
    outer loop
      vertex   4.021562e+002 -1.563284e+002 2.023747e+002
      vertex   4.044383e+002 -1.548009e+002 2.024220e+002
      vertex   4.072765e+002 -1.559707e+002 2.024809e+002
    endloop
  endfacet
  facet normal 2.086759e-002 1.297234e-005 -9.997822e-001
    outer loop
      vertex   4.155785e+002 -1.537166e+002 2.026536e+002
      vertex   4.192762e+002 -1.532158e+002 2.027308e+002
      vertex   4.196571e+002 -1.545561e+002 2.027387e+002
    endloop
  endfacet
  facet normal 2.092182e-002 2.839140e-005 -9.997811e-001
    outer loop
      vertex   4.196571e+002 -1.545561e+002 2.027387e+002
      vertex   4.192762e+002 -1.532158e+002 2.027308e+002
      vertex   4.229638e+002 -1.526456e+002 2.028080e+002
    endloop
  endfacet
  facet normal 2.098165e-002 5.359850e-005 -9.997799e-001
    outer loop
      vertex   4.258083e+002 -1.535601e+002 2.028676e+002
      vertex   4.229638e+002 -1.526456e+002 2.028080e+002
      vertex   4.266400e+002 -1.520062e+002 2.028851e+002
    endloop
  endfacet
  facet normal 2.106139e-002 1.089958e-005 -9.997782e-001
    outer loop
      vertex   4.303035e+002 -1.512979e+002 2.029623e+002
      vertex   4.258083e+002 -1.535601e+002 2.028676e+002
      vertex   4.266400e+002 -1.520062e+002 2.028851e+002
    endloop
  endfacet
  facet normal 2.106685e-002 5.927305e-008 -9.997781e-001
    outer loop
      vertex   4.303035e+002 -1.512979e+002 2.029623e+002
      vertex   4.319255e+002 -1.523730e+002 2.029965e+002
      vertex   4.258083e+002 -1.535601e+002 2.028676e+002
    endloop
  endfacet
  facet normal 2.112518e-002 8.810714e-005 -9.997768e-001
    outer loop
      vertex   4.303035e+002 -1.512979e+002 2.029623e+002
      vertex   4.339532e+002 -1.505208e+002 2.030395e+002
      vertex   4.319255e+002 -1.523730e+002 2.029965e+002
    endloop
  endfacet
  facet normal 2.120519e-002 4.804090e-007 -9.997751e-001
    outer loop
      vertex   4.319255e+002 -1.523730e+002 2.029965e+002
      vertex   4.339532e+002 -1.505208e+002 2.030395e+002
      vertex   4.380027e+002 -1.509958e+002 2.031254e+002
    endloop
  endfacet
  facet normal 2.121296e-002 8.474243e-005 -9.997750e-001
    outer loop
      vertex   4.345535e+002 -1.532171e+002 2.030520e+002
      vertex   4.380027e+002 -1.509958e+002 2.031254e+002
      vertex   4.382384e+002 -1.523598e+002 2.031303e+002
    endloop
  endfacet
  facet normal 2.117152e-002 1.491149e-004 -9.997758e-001
    outer loop
      vertex   4.345535e+002 -1.532171e+002 2.030520e+002
      vertex   4.319255e+002 -1.523730e+002 2.029965e+002
      vertex   4.380027e+002 -1.509958e+002 2.031254e+002
    endloop
  endfacet
  facet normal 2.113585e-002 3.799994e-005 -9.997766e-001
    outer loop
      vertex   4.345535e+002 -1.532171e+002 2.030520e+002
      vertex   4.308532e+002 -1.540050e+002 2.029738e+002
      vertex   4.319255e+002 -1.523730e+002 2.029965e+002
    endloop
  endfacet
  facet normal 2.104833e-002 9.553185e-005 -9.997785e-001
    outer loop
      vertex   4.319255e+002 -1.523730e+002 2.029965e+002
      vertex   4.308532e+002 -1.540050e+002 2.029738e+002
      vertex   4.258083e+002 -1.535601e+002 2.028676e+002
    endloop
  endfacet
  facet normal 2.104730e-002 8.384272e-005 -9.997785e-001
    outer loop
      vertex   4.258083e+002 -1.535601e+002 2.028676e+002
      vertex   4.308532e+002 -1.540050e+002 2.029738e+002
      vertex   4.271387e+002 -1.547232e+002 2.028955e+002
    endloop
  endfacet
  facet normal 2.098816e-002 1.616832e-005 -9.997797e-001
    outer loop
      vertex   4.234113e+002 -1.553715e+002 2.028173e+002
      vertex   4.258083e+002 -1.535601e+002 2.028676e+002
      vertex   4.271387e+002 -1.547232e+002 2.028955e+002
    endloop
  endfacet
  facet normal 2.093669e-002 8.430446e-005 -9.997808e-001
    outer loop
      vertex   4.234113e+002 -1.553715e+002 2.028173e+002
      vertex   4.196571e+002 -1.545561e+002 2.027387e+002
      vertex   4.258083e+002 -1.535601e+002 2.028676e+002
    endloop
  endfacet
  facet normal 2.092296e-002 2.103259e-005 -9.997811e-001
    outer loop
      vertex   4.234113e+002 -1.553715e+002 2.028173e+002
      vertex   4.196724e+002 -1.559496e+002 2.027390e+002
      vertex   4.196571e+002 -1.545561e+002 2.027387e+002
    endloop
  endfacet
  facet normal 2.095506e-002 -2.915948e-005 -9.997804e-001
    outer loop
      vertex   4.196571e+002 -1.545561e+002 2.027387e+002
      vertex   4.229638e+002 -1.526456e+002 2.028080e+002
      vertex   4.258083e+002 -1.535601e+002 2.028676e+002
    endloop
  endfacet
  facet normal 2.121436e-002 7.871497e-005 -9.997749e-001
    outer loop
      vertex   4.339532e+002 -1.505208e+002 2.030395e+002
      vertex   4.375875e+002 -1.496753e+002 2.031167e+002
      vertex   4.380027e+002 -1.509958e+002 2.031254e+002
    endloop
  endfacet
  facet normal 2.130288e-002 1.065596e-004 -9.997731e-001
    outer loop
      vertex   4.380027e+002 -1.509958e+002 2.031254e+002
      vertex   4.375875e+002 -1.496753e+002 2.031167e+002
      vertex   4.412053e+002 -1.487616e+002 2.031939e+002
    endloop
  endfacet
  facet normal 2.139184e-002 1.580303e-004 -9.997712e-001
    outer loop
      vertex   4.440341e+002 -1.494299e+002 2.032543e+002
      vertex   4.412053e+002 -1.487616e+002 2.031939e+002
      vertex   4.448054e+002 -1.477801e+002 2.032711e+002
    endloop
  endfacet
  facet normal 2.152043e-002 9.788217e-005 -9.997684e-001
    outer loop
      vertex   4.483864e+002 -1.467312e+002 2.033483e+002
      vertex   4.440341e+002 -1.494299e+002 2.032543e+002
      vertex   4.448054e+002 -1.477801e+002 2.032711e+002
    endloop
  endfacet
  facet normal 2.152442e-002 9.144010e-005 -9.997683e-001
    outer loop
      vertex   4.483864e+002 -1.467312e+002 2.033483e+002
      vertex   4.500137e+002 -1.476767e+002 2.033832e+002
      vertex   4.440341e+002 -1.494299e+002 2.032543e+002
    endloop
  endfacet
  facet normal 2.160246e-002 2.258114e-004 -9.997666e-001
    outer loop
      vertex   4.483864e+002 -1.467312e+002 2.033483e+002
      vertex   4.519468e+002 -1.456151e+002 2.034254e+002
      vertex   4.500137e+002 -1.476767e+002 2.033832e+002
    endloop
  endfacet
  facet normal 2.169794e-002 1.362396e-004 -9.997646e-001
    outer loop
      vertex   4.500137e+002 -1.476767e+002 2.033832e+002
      vertex   4.519468e+002 -1.456151e+002 2.034254e+002
      vertex   4.563857e+002 -1.470439e+002 2.035216e+002
    endloop
  endfacet
  facet normal 2.167238e-002 3.937604e-004 -9.997650e-001
    outer loop
      vertex   4.527974e+002 -1.482432e+002 2.034433e+002
      vertex   4.500137e+002 -1.476767e+002 2.033832e+002
      vertex   4.563857e+002 -1.470439e+002 2.035216e+002
    endloop
  endfacet
  facet normal 2.162414e-002 1.566093e-004 -9.997662e-001
    outer loop
      vertex   4.527974e+002 -1.482432e+002 2.034433e+002
      vertex   4.491874e+002 -1.493748e+002 2.033651e+002
      vertex   4.500137e+002 -1.476767e+002 2.033832e+002
    endloop
  endfacet
  facet normal 2.148555e-002 2.240820e-004 -9.997691e-001
    outer loop
      vertex   4.500137e+002 -1.476767e+002 2.033832e+002
      vertex   4.491874e+002 -1.493748e+002 2.033651e+002
      vertex   4.440341e+002 -1.494299e+002 2.032543e+002
    endloop
  endfacet
  facet normal 2.148563e-002 2.167331e-004 -9.997691e-001
    outer loop
      vertex   4.440341e+002 -1.494299e+002 2.032543e+002
      vertex   4.491874e+002 -1.493748e+002 2.033651e+002
      vertex   4.455567e+002 -1.504383e+002 2.032868e+002
    endloop
  endfacet
  facet normal 2.140786e-002 9.925844e-005 -9.997708e-001
    outer loop
      vertex   4.419065e+002 -1.514335e+002 2.032086e+002
      vertex   4.440341e+002 -1.494299e+002 2.032543e+002
      vertex   4.455567e+002 -1.504383e+002 2.032868e+002
    endloop
  endfacet
  facet normal 2.131527e-002 1.976137e-004 -9.997728e-001
    outer loop
      vertex   4.419065e+002 -1.514335e+002 2.032086e+002
      vertex   4.380027e+002 -1.509958e+002 2.031254e+002
      vertex   4.440341e+002 -1.494299e+002 2.032543e+002
    endloop
  endfacet
  facet normal 2.130440e-002 1.005496e-004 -9.997730e-001
    outer loop
      vertex   4.419065e+002 -1.514335e+002 2.032086e+002
      vertex   4.382384e+002 -1.523598e+002 2.031303e+002
      vertex   4.380027e+002 -1.509958e+002 2.031254e+002
    endloop
  endfacet
  facet normal 2.136026e-002 2.426795e-005 -9.997718e-001
    outer loop
      vertex   4.380027e+002 -1.509958e+002 2.031254e+002
      vertex   4.412053e+002 -1.487616e+002 2.031939e+002
      vertex   4.440341e+002 -1.494299e+002 2.032543e+002
    endloop
  endfacet
  facet normal 2.172760e-002 2.284415e-004 -9.997639e-001
    outer loop
      vertex   4.519468e+002 -1.456151e+002 2.034254e+002
      vertex   4.554859e+002 -1.444323e+002 2.035026e+002
      vertex   4.563857e+002 -1.470439e+002 2.035216e+002
    endloop
  endfacet
  facet normal 2.071837e-002 -5.557845e-006 -9.997854e-001
    outer loop
      vertex   4.046282e+002 -1.575567e+002 2.024260e+002
      vertex   4.008517e+002 -1.577814e+002 2.023477e+002
      vertex   4.021562e+002 -1.563284e+002 2.023747e+002
    endloop
  endfacet
  facet normal -4.061851e-002 9.991744e-001 -8.403818e-004
    outer loop
      vertex   3.969853e+002 -1.551742e+002 2.022677e+002
      vertex   3.969744e+002 -1.551742e+002 2.027951e+002
      vertex   4.007136e+002 -1.550225e+002 2.023449e+002
    endloop
  endfacet
  facet normal -4.520934e-002 9.982046e-001 -3.928994e-002
    outer loop
      vertex   4.007136e+002 -1.550225e+002 2.023449e+002
      vertex   3.969744e+002 -1.551742e+002 2.027951e+002
      vertex   4.020722e+002 -1.549495e+002 2.026368e+002
    endloop
  endfacet
  facet normal -6.826569e-002 9.956765e-001 -6.299337e-002
    outer loop
      vertex   4.044383e+002 -1.548009e+002 2.024220e+002
      vertex   4.020722e+002 -1.549495e+002 2.026368e+002
      vertex   4.071572e+002 -1.545942e+002 2.027423e+002
    endloop
  endfacet
  facet normal -9.579726e-002 9.942872e-001 -4.707256e-002
    outer loop
      vertex   4.081583e+002 -1.545092e+002 2.024992e+002
      vertex   4.071572e+002 -1.545942e+002 2.027423e+002
      vertex   4.118722e+002 -1.541478e+002 2.025764e+002
    endloop
  endfacet
  facet normal -7.863358e-002 9.966042e-001 2.443136e-002
    outer loop
      vertex   4.081583e+002 -1.545092e+002 2.024992e+002
      vertex   4.044383e+002 -1.548009e+002 2.024220e+002
      vertex   4.071572e+002 -1.545942e+002 2.027423e+002
    endloop
  endfacet
  facet normal -4.190192e-002 9.969738e-001 6.547879e-002
    outer loop
      vertex   3.969744e+002 -1.551742e+002 2.027951e+002
      vertex   4.007027e+002 -1.550225e+002 2.028723e+002
      vertex   4.020722e+002 -1.549495e+002 2.026368e+002
    endloop
  endfacet
  facet normal -5.871305e-002 9.977602e-001 -3.205207e-002
    outer loop
      vertex   4.020722e+002 -1.549495e+002 2.026368e+002
      vertex   4.007027e+002 -1.550225e+002 2.028723e+002
      vertex   4.044273e+002 -1.548009e+002 2.029495e+002
    endloop
  endfacet
  facet normal -7.755273e-002 9.966044e-001 -2.766301e-002
    outer loop
      vertex   4.071572e+002 -1.545942e+002 2.027423e+002
      vertex   4.044273e+002 -1.548009e+002 2.029495e+002
      vertex   4.081473e+002 -1.545093e+002 2.030267e+002
    endloop
  endfacet
  facet normal -9.767061e-002 9.942863e-001 4.307242e-002
    outer loop
      vertex   4.118612e+002 -1.541478e+002 2.031039e+002
      vertex   4.071572e+002 -1.545942e+002 2.027423e+002
      vertex   4.081473e+002 -1.545093e+002 2.030267e+002
    endloop
  endfacet
  facet normal -9.913479e-002 9.930353e-001 6.366523e-002
    outer loop
      vertex   4.118612e+002 -1.541478e+002 2.031039e+002
      vertex   4.133156e+002 -1.539876e+002 2.028703e+002
      vertex   4.071572e+002 -1.545942e+002 2.027423e+002
    endloop
  endfacet
  facet normal -1.147956e-001 9.928068e-001 -3.401007e-002
    outer loop
      vertex   4.118612e+002 -1.541478e+002 2.031039e+002
      vertex   4.155675e+002 -1.537166e+002 2.031811e+002
      vertex   4.133156e+002 -1.539876e+002 2.028703e+002
    endloop
  endfacet
  facet normal -1.302365e-001 9.880864e-001 8.199783e-002
    outer loop
      vertex   4.133156e+002 -1.539876e+002 2.028703e+002
      vertex   4.155675e+002 -1.537166e+002 2.031811e+002
      vertex   4.194522e+002 -1.531894e+002 2.029983e+002
    endloop
  endfacet
  facet normal -1.340030e-001 9.909341e-001 -9.636002e-003
    outer loop
      vertex   4.155785e+002 -1.537166e+002 2.026536e+002
      vertex   4.194522e+002 -1.531894e+002 2.029983e+002
      vertex   4.192762e+002 -1.532158e+002 2.027308e+002
    endloop
  endfacet
  facet normal -1.267059e-001 9.880922e-001 -8.728976e-002
    outer loop
      vertex   4.155785e+002 -1.537166e+002 2.026536e+002
      vertex   4.133156e+002 -1.539876e+002 2.028703e+002
      vertex   4.194522e+002 -1.531894e+002 2.029983e+002
    endloop
  endfacet
  facet normal -1.161125e-001 9.928059e-001 2.922808e-002
    outer loop
      vertex   4.155785e+002 -1.537166e+002 2.026536e+002
      vertex   4.118722e+002 -1.541478e+002 2.025764e+002
      vertex   4.133156e+002 -1.539876e+002 2.028703e+002
    endloop
  endfacet
  facet normal -9.640454e-002 9.930373e-001 -6.769809e-002
    outer loop
      vertex   4.133156e+002 -1.539876e+002 2.028703e+002
      vertex   4.118722e+002 -1.541478e+002 2.025764e+002
      vertex   4.071572e+002 -1.545942e+002 2.027423e+002
    endloop
  endfacet
  facet normal -7.081860e-002 9.956755e-001 6.012450e-002
    outer loop
      vertex   4.020722e+002 -1.549495e+002 2.026368e+002
      vertex   4.044273e+002 -1.548009e+002 2.029495e+002
      vertex   4.071572e+002 -1.545942e+002 2.027423e+002
    endloop
  endfacet
  facet normal -1.342890e-001 9.909338e-001 4.070179e-003
    outer loop
      vertex   4.155675e+002 -1.537166e+002 2.031811e+002
      vertex   4.192652e+002 -1.532158e+002 2.032582e+002
      vertex   4.194522e+002 -1.531894e+002 2.029983e+002
    endloop
  endfacet
  facet normal -1.526065e-001 9.882425e-001 -9.382692e-003
    outer loop
      vertex   4.194522e+002 -1.531894e+002 2.029983e+002
      vertex   4.192652e+002 -1.532158e+002 2.032582e+002
      vertex   4.229527e+002 -1.526456e+002 2.033354e+002
    endloop
  endfacet
  facet normal -1.706346e-001 9.848454e-001 -3.103918e-002
    outer loop
      vertex   4.255609e+002 -1.522003e+002 2.031263e+002
      vertex   4.229527e+002 -1.526456e+002 2.033354e+002
      vertex   4.266289e+002 -1.520063e+002 2.034126e+002
    endloop
  endfacet
  facet normal -1.905692e-001 9.805854e-001 4.621364e-002
    outer loop
      vertex   4.302924e+002 -1.512979e+002 2.034898e+002
      vertex   4.255609e+002 -1.522003e+002 2.031263e+002
      vertex   4.266289e+002 -1.520063e+002 2.034126e+002
    endloop
  endfacet
  facet normal -1.913782e-001 9.797528e-001 5.881153e-002
    outer loop
      vertex   4.302924e+002 -1.512979e+002 2.034898e+002
      vertex   4.316358e+002 -1.510214e+002 2.032543e+002
      vertex   4.255609e+002 -1.522003e+002 2.031263e+002
    endloop
  endfacet
  facet normal -2.074106e-001 9.776220e-001 -3.515712e-002
    outer loop
      vertex   4.302924e+002 -1.512979e+002 2.034898e+002
      vertex   4.339420e+002 -1.505209e+002 2.035670e+002
      vertex   4.316358e+002 -1.510214e+002 2.032543e+002
    endloop
  endfacet
  facet normal -2.219222e-001 9.716583e-001 8.142951e-002
    outer loop
      vertex   4.316358e+002 -1.510214e+002 2.032543e+002
      vertex   4.339420e+002 -1.505209e+002 2.035670e+002
      vertex   4.376710e+002 -1.496537e+002 2.033823e+002
    endloop
  endfacet
  facet normal -2.264239e-001 9.739954e-001 -8.071991e-003
    outer loop
      vertex   4.339532e+002 -1.505208e+002 2.030395e+002
      vertex   4.376710e+002 -1.496537e+002 2.033823e+002
      vertex   4.375875e+002 -1.496753e+002 2.031167e+002
    endloop
  endfacet
  facet normal -2.182789e-001 9.716771e-001 -9.054305e-002
    outer loop
      vertex   4.339532e+002 -1.505208e+002 2.030395e+002
      vertex   4.316358e+002 -1.510214e+002 2.032543e+002
      vertex   4.376710e+002 -1.496537e+002 2.033823e+002
    endloop
  endfacet
  facet normal -2.087136e-001 9.776179e-001 2.649482e-002
    outer loop
      vertex   4.339532e+002 -1.505208e+002 2.030395e+002
      vertex   4.303035e+002 -1.512979e+002 2.029623e+002
      vertex   4.316358e+002 -1.510214e+002 2.032543e+002
    endloop
  endfacet
  facet normal -1.887352e-001 9.797609e-001 -6.669051e-002
    outer loop
      vertex   4.316358e+002 -1.510214e+002 2.032543e+002
      vertex   4.303035e+002 -1.512979e+002 2.029623e+002
      vertex   4.255609e+002 -1.522003e+002 2.031263e+002
    endloop
  endfacet
  facet normal -1.884573e-001 9.805912e-001 -5.408191e-002
    outer loop
      vertex   4.255609e+002 -1.522003e+002 2.031263e+002
      vertex   4.303035e+002 -1.512979e+002 2.029623e+002
      vertex   4.266400e+002 -1.520062e+002 2.028851e+002
    endloop
  endfacet
  facet normal -1.717883e-001 9.848433e-001 2.392687e-002
    outer loop
      vertex   4.229638e+002 -1.526456e+002 2.028080e+002
      vertex   4.255609e+002 -1.522003e+002 2.031263e+002
      vertex   4.266400e+002 -1.520062e+002 2.028851e+002
    endloop
  endfacet
  facet normal -1.572602e-001 9.832308e-001 -9.233894e-002
    outer loop
      vertex   4.229638e+002 -1.526456e+002 2.028080e+002
      vertex   4.194522e+002 -1.531894e+002 2.029983e+002
      vertex   4.255609e+002 -1.522003e+002 2.031263e+002
    endloop
  endfacet
  facet normal -1.528664e-001 9.882422e-001 3.039722e-003
    outer loop
      vertex   4.229638e+002 -1.526456e+002 2.028080e+002
      vertex   4.192762e+002 -1.532158e+002 2.027308e+002
      vertex   4.194522e+002 -1.531894e+002 2.029983e+002
    endloop
  endfacet
  facet normal -1.609911e-001 9.832210e-001 8.578047e-002
    outer loop
      vertex   4.194522e+002 -1.531894e+002 2.029983e+002
      vertex   4.229527e+002 -1.526456e+002 2.033354e+002
      vertex   4.255609e+002 -1.522003e+002 2.031263e+002
    endloop
  endfacet
  facet normal -2.265659e-001 9.739949e-001 -1.379541e-003
    outer loop
      vertex   4.339420e+002 -1.505209e+002 2.035670e+002
      vertex   4.375763e+002 -1.496754e+002 2.036442e+002
      vertex   4.376710e+002 -1.496537e+002 2.033823e+002
    endloop
  endfacet
  facet normal -2.446819e-001 9.695679e-001 -8.300097e-003
    outer loop
      vertex   4.376710e+002 -1.496537e+002 2.033823e+002
      vertex   4.375763e+002 -1.496754e+002 2.036442e+002
      vertex   4.411941e+002 -1.487617e+002 2.037213e+002
    endloop
  endfacet
  facet normal -2.621965e-001 9.644063e-001 -3.425519e-002
    outer loop
      vertex   4.436607e+002 -1.480986e+002 2.035103e+002
      vertex   4.411941e+002 -1.487617e+002 2.037213e+002
      vertex   4.447941e+002 -1.477802e+002 2.037985e+002
    endloop
  endfacet
  facet normal -2.817562e-001 9.582075e-001 4.951577e-002
    outer loop
      vertex   4.483750e+002 -1.467313e+002 2.038757e+002
      vertex   4.436607e+002 -1.480986e+002 2.035103e+002
      vertex   4.447941e+002 -1.477802e+002 2.037985e+002
    endloop
  endfacet
  facet normal -2.820000e-001 9.579052e-001 5.379259e-002
    outer loop
      vertex   4.483750e+002 -1.467313e+002 2.038757e+002
      vertex   4.495990e+002 -1.463576e+002 2.036383e+002
      vertex   4.436607e+002 -1.480986e+002 2.035103e+002
    endloop
  endfacet
  facet normal -2.981933e-001 9.538210e-001 -3.614160e-002
    outer loop
      vertex   4.483750e+002 -1.467313e+002 2.038757e+002
      vertex   4.519354e+002 -1.456152e+002 2.039529e+002
      vertex   4.495990e+002 -1.463576e+002 2.036383e+002
    endloop
  endfacet
  facet normal -3.091858e-001 9.493476e-001 5.606450e-002
    outer loop
      vertex   4.495990e+002 -1.463576e+002 2.036383e+002
      vertex   4.519354e+002 -1.456152e+002 2.039529e+002
      vertex   4.554859e+002 -1.444323e+002 2.035026e+002
    endloop
  endfacet
  facet normal -3.104460e-001 9.386697e-001 -1.500750e-001
    outer loop
      vertex   4.519468e+002 -1.456151e+002 2.034254e+002
      vertex   4.495990e+002 -1.463576e+002 2.036383e+002
      vertex   4.554859e+002 -1.444323e+002 2.035026e+002
    endloop
  endfacet
  facet normal -2.994847e-001 9.538092e-001 2.359842e-002
    outer loop
      vertex   4.519468e+002 -1.456151e+002 2.034254e+002
      vertex   4.483864e+002 -1.467312e+002 2.033483e+002
      vertex   4.495990e+002 -1.463576e+002 2.036383e+002
    endloop
  endfacet
  facet normal -2.794344e-001 9.579266e-001 -6.552139e-002
    outer loop
      vertex   4.495990e+002 -1.463576e+002 2.036383e+002
      vertex   4.483864e+002 -1.467312e+002 2.033483e+002
      vertex   4.436607e+002 -1.480986e+002 2.035103e+002
    endloop
  endfacet
  facet normal -2.793746e-001 9.582269e-001 -6.124513e-002
    outer loop
      vertex   4.436607e+002 -1.480986e+002 2.035103e+002
      vertex   4.483864e+002 -1.467312e+002 2.033483e+002
      vertex   4.448054e+002 -1.477801e+002 2.032711e+002
    endloop
  endfacet
  facet normal -2.634276e-001 9.643987e-001 2.326294e-002
    outer loop
      vertex   4.412053e+002 -1.487616e+002 2.031939e+002
      vertex   4.436607e+002 -1.480986e+002 2.035103e+002
      vertex   4.448054e+002 -1.477801e+002 2.032711e+002
    endloop
  endfacet
  facet normal -2.483301e-001 9.641633e-001 -9.338733e-002
    outer loop
      vertex   4.412053e+002 -1.487616e+002 2.031939e+002
      vertex   4.376710e+002 -1.496537e+002 2.033823e+002
      vertex   4.436607e+002 -1.480986e+002 2.035103e+002
    endloop
  endfacet
  facet normal -2.448177e-001 9.695672e-001 -1.928540e-003
    outer loop
      vertex   4.412053e+002 -1.487616e+002 2.031939e+002
      vertex   4.375875e+002 -1.496753e+002 2.031167e+002
      vertex   4.376710e+002 -1.496537e+002 2.033823e+002
    endloop
  endfacet
  facet normal -2.520929e-001 9.641365e-001 8.300558e-002
    outer loop
      vertex   4.376710e+002 -1.496537e+002 2.033823e+002
      vertex   4.411941e+002 -1.487617e+002 2.037213e+002
      vertex   4.436607e+002 -1.480986e+002 2.035103e+002
    endloop
  endfacet
  facet normal -3.168438e-001 9.484543e-001 -6.668595e-003
    outer loop
      vertex   4.519354e+002 -1.456152e+002 2.039529e+002
      vertex   4.554744e+002 -1.444324e+002 2.040301e+002
      vertex   4.554859e+002 -1.444323e+002 2.035026e+002
    endloop
  endfacet
  facet normal -5.999058e-002 9.977600e-001 2.959762e-002
    outer loop
      vertex   4.044383e+002 -1.548009e+002 2.024220e+002
      vertex   4.007136e+002 -1.550225e+002 2.023449e+002
      vertex   4.020722e+002 -1.549495e+002 2.026368e+002
    endloop
  endfacet
  facet normal -2.068045e-002 -1.800412e-007 9.997861e-001
    outer loop
      vertex   3.907594e+002 -1.552874e+002 2.026666e+002
      vertex   3.845208e+002 -1.553037e+002 2.025375e+002
      vertex   3.865225e+002 -1.566843e+002 2.025789e+002
    endloop
  endfacet
  facet normal -2.068082e-002 -9.835513e-007 9.997861e-001
    outer loop
      vertex   3.927751e+002 -1.566473e+002 2.027083e+002
      vertex   3.865225e+002 -1.566843e+002 2.025789e+002
      vertex   3.907810e+002 -1.580497e+002 2.026670e+002
    endloop
  endfacet
  facet normal -2.068431e-002 3.976231e-006 9.997861e-001
    outer loop
      vertex   3.970604e+002 -1.579352e+002 2.027969e+002
      vertex   3.927751e+002 -1.566473e+002 2.027083e+002
      vertex   3.907810e+002 -1.580497e+002 2.026670e+002
    endloop
  endfacet
  facet normal -2.068552e-002 -5.773088e-008 9.997860e-001
    outer loop
      vertex   3.970604e+002 -1.579352e+002 2.027969e+002
      vertex   3.969744e+002 -1.551742e+002 2.027951e+002
      vertex   3.927751e+002 -1.566473e+002 2.027083e+002
    endloop
  endfacet
  facet normal -2.068416e-002 -3.938936e-006 9.997861e-001
    outer loop
      vertex   3.927751e+002 -1.566473e+002 2.027083e+002
      vertex   3.969744e+002 -1.551742e+002 2.027951e+002
      vertex   3.907594e+002 -1.552874e+002 2.026666e+002
    endloop
  endfacet
  facet normal -2.068083e-002 9.923857e-007 9.997861e-001
    outer loop
      vertex   3.865225e+002 -1.566843e+002 2.025789e+002
      vertex   3.927751e+002 -1.566473e+002 2.027083e+002
      vertex   3.907594e+002 -1.552874e+002 2.026666e+002
    endloop
  endfacet
  facet normal -2.068032e-002 2.236917e-011 9.997861e-001
    outer loop
      vertex   3.845208e+002 -1.553037e+002 2.025375e+002
      vertex   3.845208e+002 -1.580660e+002 2.025375e+002
      vertex   3.865225e+002 -1.566843e+002 2.025789e+002
    endloop
  endfacet
  facet normal -2.068045e-002 1.817309e-007 9.997861e-001
    outer loop
      vertex   3.865225e+002 -1.566843e+002 2.025789e+002
      vertex   3.845208e+002 -1.580660e+002 2.025375e+002
      vertex   3.907810e+002 -1.580497e+002 2.026670e+002
    endloop
  endfacet
  facet normal 2.237221e-003 -9.998390e-001 1.780403e-002
    outer loop
      vertex   3.907810e+002 -1.580497e+002 2.026670e+002
      vertex   3.845208e+002 -1.580660e+002 2.025375e+002
      vertex   3.865324e+002 -1.580655e+002 2.023153e+002
    endloop
  endfacet
  facet normal 5.176658e-003 -9.993457e-001 3.579598e-002
    outer loop
      vertex   3.928030e+002 -1.580283e+002 2.024450e+002
      vertex   3.865324e+002 -1.580655e+002 2.023153e+002
      vertex   3.907919e+002 -1.580497e+002 2.021395e+002
    endloop
  endfacet
  facet normal 1.940267e-002 -9.981305e-001 -5.795696e-002
    outer loop
      vertex   3.970714e+002 -1.579352e+002 2.022695e+002
      vertex   3.928030e+002 -1.580283e+002 2.024450e+002
      vertex   3.907919e+002 -1.580497e+002 2.021395e+002
    endloop
  endfacet
  facet normal 2.184028e-002 -9.997614e-001 4.517727e-004
    outer loop
      vertex   3.970714e+002 -1.579352e+002 2.022695e+002
      vertex   3.970604e+002 -1.579352e+002 2.027969e+002
      vertex   3.928030e+002 -1.580283e+002 2.024450e+002
    endloop
  endfacet
  facet normal 1.698904e-002 -9.981307e-001 5.870728e-002
    outer loop
      vertex   3.928030e+002 -1.580283e+002 2.024450e+002
      vertex   3.970604e+002 -1.579352e+002 2.027969e+002
      vertex   3.907810e+002 -1.580497e+002 2.026670e+002
    endloop
  endfacet
  facet normal 6.652502e-003 -9.993457e-001 -3.555167e-002
    outer loop
      vertex   3.865324e+002 -1.580655e+002 2.023153e+002
      vertex   3.928030e+002 -1.580283e+002 2.024450e+002
      vertex   3.907810e+002 -1.580497e+002 2.026670e+002
    endloop
  endfacet
  facet normal 2.709680e-004 -1.000000e+000 5.604926e-006
    outer loop
      vertex   3.845208e+002 -1.580660e+002 2.025375e+002
      vertex   3.845317e+002 -1.580660e+002 2.020101e+002
      vertex   3.865324e+002 -1.580655e+002 2.023153e+002
    endloop
  endfacet
  facet normal 2.971541e-003 -9.998390e-001 -1.769632e-002
    outer loop
      vertex   3.865324e+002 -1.580655e+002 2.023153e+002
      vertex   3.845317e+002 -1.580660e+002 2.020101e+002
      vertex   3.907919e+002 -1.580497e+002 2.021395e+002
    endloop
  endfacet
  facet normal 2.068045e-002 -1.817359e-007 -9.997861e-001
    outer loop
      vertex   3.907919e+002 -1.580497e+002 2.021395e+002
      vertex   3.845317e+002 -1.580660e+002 2.020101e+002
      vertex   3.865334e+002 -1.566843e+002 2.020515e+002
    endloop
  endfacet
  facet normal 2.068083e-002 -9.923863e-007 -9.997861e-001
    outer loop
      vertex   3.927860e+002 -1.566473e+002 2.021808e+002
      vertex   3.865334e+002 -1.566843e+002 2.020515e+002
      vertex   3.907703e+002 -1.552874e+002 2.021391e+002
    endloop
  endfacet
  facet normal 2.068416e-002 3.938942e-006 -9.997861e-001
    outer loop
      vertex   3.969853e+002 -1.551742e+002 2.022677e+002
      vertex   3.927860e+002 -1.566473e+002 2.021808e+002
      vertex   3.907703e+002 -1.552874e+002 2.021391e+002
    endloop
  endfacet
  facet normal 2.068552e-002 5.773101e-008 -9.997860e-001
    outer loop
      vertex   3.969853e+002 -1.551742e+002 2.022677e+002
      vertex   3.970714e+002 -1.579352e+002 2.022695e+002
      vertex   3.927860e+002 -1.566473e+002 2.021808e+002
    endloop
  endfacet
  facet normal 2.068431e-002 -3.976237e-006 -9.997861e-001
    outer loop
      vertex   3.927860e+002 -1.566473e+002 2.021808e+002
      vertex   3.970714e+002 -1.579352e+002 2.022695e+002
      vertex   3.907919e+002 -1.580497e+002 2.021395e+002
    endloop
  endfacet
  facet normal 2.068082e-002 9.835519e-007 -9.997861e-001
    outer loop
      vertex   3.865334e+002 -1.566843e+002 2.020515e+002
      vertex   3.927860e+002 -1.566473e+002 2.021808e+002
      vertex   3.907919e+002 -1.580497e+002 2.021395e+002
    endloop
  endfacet
  facet normal 2.068032e-002 -2.236960e-011 -9.997861e-001
    outer loop
      vertex   3.845317e+002 -1.580660e+002 2.020101e+002
      vertex   3.845317e+002 -1.553037e+002 2.020101e+002
      vertex   3.865334e+002 -1.566843e+002 2.020515e+002
    endloop
  endfacet
  facet normal 2.068045e-002 1.800461e-007 -9.997861e-001
    outer loop
      vertex   3.865334e+002 -1.566843e+002 2.020515e+002
      vertex   3.845317e+002 -1.553037e+002 2.020101e+002
      vertex   3.907703e+002 -1.552874e+002 2.021391e+002
    endloop
  endfacet
  facet normal -2.965017e-003 9.998407e-001 1.759809e-002
    outer loop
      vertex   3.907703e+002 -1.552874e+002 2.021391e+002
      vertex   3.845317e+002 -1.553037e+002 2.020101e+002
      vertex   3.865235e+002 -1.553031e+002 2.023151e+002
    endloop
  endfacet
  facet normal -6.623781e-003 9.993579e-001 3.521336e-002
    outer loop
      vertex   3.927581e+002 -1.552663e+002 2.024441e+002
      vertex   3.865235e+002 -1.553031e+002 2.023151e+002
      vertex   3.907594e+002 -1.552874e+002 2.026666e+002
    endloop
  endfacet
  facet normal -1.699084e-002 9.981703e-001 -5.802828e-002
    outer loop
      vertex   3.969744e+002 -1.551742e+002 2.027951e+002
      vertex   3.927581e+002 -1.552663e+002 2.024441e+002
      vertex   3.907594e+002 -1.552874e+002 2.026666e+002
    endloop
  endfacet
  facet normal -2.181992e-002 9.997618e-001 -4.513513e-004
    outer loop
      vertex   3.969744e+002 -1.551742e+002 2.027951e+002
      vertex   3.969853e+002 -1.551742e+002 2.022677e+002
      vertex   3.927581e+002 -1.552663e+002 2.024441e+002
    endloop
  endfacet
  facet normal -1.937638e-002 9.981702e-001 5.727841e-002
    outer loop
      vertex   3.927581e+002 -1.552663e+002 2.024441e+002
      vertex   3.969853e+002 -1.551742e+002 2.022677e+002
      vertex   3.907703e+002 -1.552874e+002 2.021391e+002
    endloop
  endfacet
  facet normal -5.161951e-003 9.993579e-001 -3.545678e-002
    outer loop
      vertex   3.865235e+002 -1.553031e+002 2.023151e+002
      vertex   3.927581e+002 -1.552663e+002 2.024441e+002
      vertex   3.907703e+002 -1.552874e+002 2.021391e+002
    endloop
  endfacet
  facet normal -2.690865e-004 1.000000e+000 -5.566007e-006
    outer loop
      vertex   3.845317e+002 -1.553037e+002 2.020101e+002
      vertex   3.845208e+002 -1.553037e+002 2.025375e+002
      vertex   3.865235e+002 -1.553031e+002 2.023151e+002
    endloop
  endfacet
  facet normal -2.234764e-003 9.998407e-001 -1.770561e-002
    outer loop
      vertex   3.865235e+002 -1.553031e+002 2.023151e+002
      vertex   3.845208e+002 -1.553037e+002 2.025375e+002
      vertex   3.907594e+002 -1.552874e+002 2.026666e+002
    endloop
  endfacet
  facet normal 1.100590e-009 1.000000e+000 4.036085e-013
    outer loop
      vertex   3.275003e+002 -1.553037e+002 2.013581e+002
      vertex   3.346333e+002 -1.553037e+002 2.012418e+002
      vertex   3.275112e+002 -1.553037e+002 2.008306e+002
    endloop
  endfacet
  facet normal 1.099570e-009 1.000000e+000 -6.217669e-011
    outer loop
      vertex   3.275003e+002 -1.553037e+002 2.013581e+002
      vertex   3.417609e+002 -1.553037e+002 2.013892e+002
      vertex   3.346333e+002 -1.553037e+002 2.012418e+002
    endloop
  endfacet
  facet normal 1.099327e-009 1.000000e+000 4.903464e-011
    outer loop
      vertex   3.275003e+002 -1.553037e+002 2.013581e+002
      vertex   3.488884e+002 -1.553037e+002 2.015366e+002
      vertex   3.417609e+002 -1.553037e+002 2.013892e+002
    endloop
  endfacet
  facet normal 1.099748e-009 1.000000e+000 -1.391979e-012
    outer loop
      vertex   3.275003e+002 -1.553037e+002 2.013581e+002
      vertex   3.560160e+002 -1.553037e+002 2.016841e+002
      vertex   3.488884e+002 -1.553037e+002 2.015366e+002
    endloop
  endfacet
  facet normal 1.099726e-009 1.000000e+000 5.473807e-013
    outer loop
      vertex   3.275003e+002 -1.553037e+002 2.013581e+002
      vertex   3.845208e+002 -1.553037e+002 2.025375e+002
      vertex   3.560160e+002 -1.553037e+002 2.016841e+002
    endloop
  endfacet
  facet normal 1.099823e-009 1.000000e+000 -2.683650e-012
    outer loop
      vertex   3.560160e+002 -1.553037e+002 2.016841e+002
      vertex   3.845208e+002 -1.553037e+002 2.025375e+002
      vertex   3.631435e+002 -1.553037e+002 2.018315e+002
    endloop
  endfacet
  facet normal 1.100057e-009 1.000000e+000 -3.985868e-011
    outer loop
      vertex   3.845317e+002 -1.553037e+002 2.020101e+002
      vertex   3.631435e+002 -1.553037e+002 2.018315e+002
      vertex   3.702711e+002 -1.553037e+002 2.019789e+002
    endloop
  endfacet
  facet normal 1.102631e-009 1.000000e+000 -6.750177e-011
    outer loop
      vertex   3.773987e+002 -1.553037e+002 2.021264e+002
      vertex   3.702711e+002 -1.553037e+002 2.019789e+002
      vertex   3.845208e+002 -1.553037e+002 2.025375e+002
    endloop
  endfacet
  facet normal 1.098713e-009 1.000000e+000 3.647761e-013
    outer loop
      vertex   3.845317e+002 -1.553037e+002 2.020101e+002
      vertex   3.773987e+002 -1.553037e+002 2.021264e+002
      vertex   3.845208e+002 -1.553037e+002 2.025375e+002
    endloop
  endfacet
  facet normal 1.099821e-009 1.000000e+000 6.833529e-011
    outer loop
      vertex   3.845317e+002 -1.553037e+002 2.020101e+002
      vertex   3.702711e+002 -1.553037e+002 2.019789e+002
      vertex   3.773987e+002 -1.553037e+002 2.021264e+002
    endloop
  endfacet
  facet normal 1.099696e-009 1.000000e+000 3.456487e-012
    outer loop
      vertex   3.631435e+002 -1.553037e+002 2.018315e+002
      vertex   3.845317e+002 -1.553037e+002 2.020101e+002
      vertex   3.560160e+002 -1.553037e+002 2.016841e+002
    endloop
  endfacet
  facet normal 1.099732e-009 1.000000e+000 2.242194e-013
    outer loop
      vertex   3.560160e+002 -1.553037e+002 2.016841e+002
      vertex   3.845317e+002 -1.553037e+002 2.020101e+002
      vertex   3.275112e+002 -1.553037e+002 2.008306e+002
    endloop
  endfacet
  facet normal 1.101339e-009 1.000000e+000 -4.823805e-011
    outer loop
      vertex   3.488884e+002 -1.553037e+002 2.015366e+002
      vertex   3.275112e+002 -1.553037e+002 2.008306e+002
      vertex   3.417609e+002 -1.553037e+002 2.013892e+002
    endloop
  endfacet
  facet normal 1.099674e-009 1.000000e+000 2.162837e-012
    outer loop
      vertex   3.488884e+002 -1.553037e+002 2.015366e+002
      vertex   3.560160e+002 -1.553037e+002 2.016841e+002
      vertex   3.275112e+002 -1.553037e+002 2.008306e+002
    endloop
  endfacet
  facet normal 1.096983e-009 1.000000e+000 6.288819e-011
    outer loop
      vertex   3.417609e+002 -1.553037e+002 2.013892e+002
      vertex   3.275112e+002 -1.553037e+002 2.008306e+002
      vertex   3.346333e+002 -1.553037e+002 2.012418e+002
    endloop
  endfacet
  facet normal 1.098393e-009 1.000000e+000 4.060942e-011
    outer loop
      vertex   3.631435e+002 -1.553037e+002 2.018315e+002
      vertex   3.845208e+002 -1.553037e+002 2.025375e+002
      vertex   3.702711e+002 -1.553037e+002 2.019789e+002
    endloop
  endfacet
  facet normal 2.068032e-002 -2.236025e-011 -9.997861e-001
    outer loop
      vertex   3.845317e+002 -1.580660e+002 2.020101e+002
      vertex   3.275112e+002 -1.580660e+002 2.008306e+002
      vertex   3.560214e+002 -1.566848e+002 2.014203e+002
    endloop
  endfacet
  facet normal 2.068032e-002 -2.237536e-011 -9.997861e-001
    outer loop
      vertex   3.845317e+002 -1.553037e+002 2.020101e+002
      vertex   3.560214e+002 -1.566848e+002 2.014203e+002
      vertex   3.275112e+002 -1.553037e+002 2.008306e+002
    endloop
  endfacet
  facet normal 2.068032e-002 -2.236960e-011 -9.997861e-001
    outer loop
      vertex   3.845317e+002 -1.553037e+002 2.020101e+002
      vertex   3.845317e+002 -1.580660e+002 2.020101e+002
      vertex   3.560214e+002 -1.566848e+002 2.014203e+002
    endloop
  endfacet
  facet normal 2.068032e-002 -2.236603e-011 -9.997861e-001
    outer loop
      vertex   3.275112e+002 -1.580660e+002 2.008306e+002
      vertex   3.275112e+002 -1.553037e+002 2.008306e+002
      vertex   3.560214e+002 -1.566848e+002 2.014203e+002
    endloop
  endfacet
  facet normal -1.100598e-009 -1.000000e+000 -4.037734e-013
    outer loop
      vertex   3.275112e+002 -1.580660e+002 2.008306e+002
      vertex   3.346333e+002 -1.580660e+002 2.012418e+002
      vertex   3.275003e+002 -1.580660e+002 2.013581e+002
    endloop
  endfacet
  facet normal -1.096985e-009 -1.000000e+000 -6.299600e-011
    outer loop
      vertex   3.275112e+002 -1.580660e+002 2.008306e+002
      vertex   3.417609e+002 -1.580660e+002 2.013892e+002
      vertex   3.346333e+002 -1.580660e+002 2.012418e+002
    endloop
  endfacet
  facet normal -1.101315e-009 -1.000000e+000 4.748417e-011
    outer loop
      vertex   3.275112e+002 -1.580660e+002 2.008306e+002
      vertex   3.488884e+002 -1.580660e+002 2.015366e+002
      vertex   3.417609e+002 -1.580660e+002 2.013892e+002
    endloop
  endfacet
  facet normal -1.099672e-009 -1.000000e+000 -2.270559e-012
    outer loop
      vertex   3.275112e+002 -1.580660e+002 2.008306e+002
      vertex   3.560160e+002 -1.580660e+002 2.016841e+002
      vertex   3.488884e+002 -1.580660e+002 2.015366e+002
    endloop
  endfacet
  facet normal -1.099730e-009 -1.000000e+000 -3.319409e-013
    outer loop
      vertex   3.275112e+002 -1.580660e+002 2.008306e+002
      vertex   3.845317e+002 -1.580660e+002 2.020101e+002
      vertex   3.560160e+002 -1.580660e+002 2.016841e+002
    endloop
  endfacet
  facet normal -1.099693e-009 -1.000000e+000 -3.564208e-012
    outer loop
      vertex   3.560160e+002 -1.580660e+002 2.016841e+002
      vertex   3.845317e+002 -1.580660e+002 2.020101e+002
      vertex   3.631435e+002 -1.580660e+002 2.018315e+002
    endloop
  endfacet
  facet normal -1.098395e-009 -1.000000e+000 -4.050170e-011
    outer loop
      vertex   3.845208e+002 -1.580660e+002 2.025375e+002
      vertex   3.631435e+002 -1.580660e+002 2.018315e+002
      vertex   3.702711e+002 -1.580660e+002 2.019789e+002
    endloop
  endfacet
  facet normal -1.099819e-009 -1.000000e+000 -6.844301e-011
    outer loop
      vertex   3.773987e+002 -1.580660e+002 2.021264e+002
      vertex   3.702711e+002 -1.580660e+002 2.019789e+002
      vertex   3.845317e+002 -1.580660e+002 2.020101e+002
    endloop
  endfacet
  facet normal -1.098709e-009 -1.000000e+000 -3.646937e-013
    outer loop
      vertex   3.845208e+002 -1.580660e+002 2.025375e+002
      vertex   3.773987e+002 -1.580660e+002 2.021264e+002
      vertex   3.845317e+002 -1.580660e+002 2.020101e+002
    endloop
  endfacet
  facet normal -1.102633e-009 -1.000000e+000 6.760949e-011
    outer loop
      vertex   3.845208e+002 -1.580660e+002 2.025375e+002
      vertex   3.702711e+002 -1.580660e+002 2.019789e+002
      vertex   3.773987e+002 -1.580660e+002 2.021264e+002
    endloop
  endfacet
  facet normal -1.099825e-009 -1.000000e+000 2.791371e-012
    outer loop
      vertex   3.631435e+002 -1.580660e+002 2.018315e+002
      vertex   3.845208e+002 -1.580660e+002 2.025375e+002
      vertex   3.560160e+002 -1.580660e+002 2.016841e+002
    endloop
  endfacet
  facet normal -1.099728e-009 -1.000000e+000 -4.396591e-013
    outer loop
      vertex   3.560160e+002 -1.580660e+002 2.016841e+002
      vertex   3.845208e+002 -1.580660e+002 2.025375e+002
      vertex   3.275003e+002 -1.580660e+002 2.013581e+002
    endloop
  endfacet
  facet normal -1.099335e-009 -1.000000e+000 -4.828042e-011
    outer loop
      vertex   3.488884e+002 -1.580660e+002 2.015366e+002
      vertex   3.275003e+002 -1.580660e+002 2.013581e+002
      vertex   3.417609e+002 -1.580660e+002 2.013892e+002
    endloop
  endfacet
  facet normal -1.099750e-009 -1.000000e+000 1.499701e-012
    outer loop
      vertex   3.488884e+002 -1.580660e+002 2.015366e+002
      vertex   3.560160e+002 -1.580660e+002 2.016841e+002
      vertex   3.275003e+002 -1.580660e+002 2.013581e+002
    endloop
  endfacet
  facet normal -1.099576e-009 -1.000000e+000 6.228433e-011
    outer loop
      vertex   3.417609e+002 -1.580660e+002 2.013892e+002
      vertex   3.275003e+002 -1.580660e+002 2.013581e+002
      vertex   3.346333e+002 -1.580660e+002 2.012418e+002
    endloop
  endfacet
  facet normal -1.100055e-009 -1.000000e+000 3.975096e-011
    outer loop
      vertex   3.631435e+002 -1.580660e+002 2.018315e+002
      vertex   3.845317e+002 -1.580660e+002 2.020101e+002
      vertex   3.702711e+002 -1.580660e+002 2.019789e+002
    endloop
  endfacet
  facet normal -2.068032e-002 2.238163e-011 9.997861e-001
    outer loop
      vertex   3.845208e+002 -1.553037e+002 2.025375e+002
      vertex   3.275003e+002 -1.553037e+002 2.013581e+002
      vertex   3.560105e+002 -1.566848e+002 2.019478e+002
    endloop
  endfacet
  facet normal -2.068032e-002 2.235357e-011 9.997861e-001
    outer loop
      vertex   3.845208e+002 -1.580660e+002 2.025375e+002
      vertex   3.560105e+002 -1.566848e+002 2.019478e+002
      vertex   3.275003e+002 -1.580660e+002 2.013581e+002
    endloop
  endfacet
  facet normal -2.068032e-002 2.236917e-011 9.997861e-001
    outer loop
      vertex   3.845208e+002 -1.580660e+002 2.025375e+002
      vertex   3.845208e+002 -1.553037e+002 2.025375e+002
      vertex   3.560105e+002 -1.566848e+002 2.019478e+002
    endloop
  endfacet
  facet normal -2.068032e-002 2.236603e-011 9.997861e-001
    outer loop
      vertex   3.275003e+002 -1.553037e+002 2.013581e+002
      vertex   3.275003e+002 -1.580660e+002 2.013581e+002
      vertex   3.560105e+002 -1.566848e+002 2.019478e+002
    endloop
  endfacet
  facet normal -9.997861e-001 1.081282e-009 -2.068032e-002
    outer loop
      vertex   3.275003e+002 -1.553037e+002 2.013581e+002
      vertex   3.275112e+002 -1.553037e+002 2.008306e+002
      vertex   3.275003e+002 -1.580660e+002 2.013581e+002
    endloop
  endfacet
  facet normal -9.997861e-001 1.081282e-009 -2.068032e-002
    outer loop
      vertex   3.275003e+002 -1.580660e+002 2.013581e+002
      vertex   3.275112e+002 -1.553037e+002 2.008306e+002
      vertex   3.275112e+002 -1.580660e+002 2.008306e+002
    endloop
  endfacet
endsolid
